<svg id="Layer_1" data-name="Layer 1" xmlns="http://www.w3.org/2000/svg" viewBox="0 0 100 100"><defs><style>.cls-1{fill:#2d7dd2;}.cls-2,.cls-4{fill:#0d4973;}.cls-3{fill:#11619a;}.cls-4{stroke:#fff;stroke-linecap:round;stroke-linejoin:round;}</style></defs><path class="cls-1" d="M15.67,33.08l31.6-22A2.1,2.1,0,0,1,49.6,11L82,31.79a2.12,2.12,0,0,1,1,1.77V66a2.1,2.1,0,0,1-.87,1.71L49.63,91.29a2.1,2.1,0,0,1-2.44,0L15.66,69.17a2.1,2.1,0,0,1-.9-1.72V34.81A2.11,2.11,0,0,1,15.67,33.08Z"/><path id="rect5005" class="cls-2" d="M50.93,79.73l7.24-5.22c.71-.52,1.29-.42,1.29.21v7.33a3.1,3.1,0,0,1-1.29,2.08l-7.24,5.22c-.72.52-1.3.43-1.3-.21V81.81a3.1,3.1,0,0,1,1.3-2.08Z"/><path id="rect5765" class="cls-3" d="M51.31,67.78l7-5c.8-.57,1.44-.42,1.44.35V70a3.5,3.5,0,0,1-1.44,2.42l-7,5c-.79.57-1.43.41-1.43-.35V70.2a3.49,3.49,0,0,1,1.43-2.42Z"/><path id="rect5767" class="cls-3" d="M50.72,56.37l8.15-5.88c.46-.33.84.33.84,1.48v5.46a3.86,3.86,0,0,1-.84,2.68L50.72,66c-.47.34-.84-.32-.84-1.47V59.06a3.85,3.85,0,0,1,.84-2.69Z"/><path id="rect5769" class="cls-3" d="M62.42,47.86l7.3-5.23c.72-.51,1.31-.12,1.31.87v6a3.74,3.74,0,0,1-1.31,2.73l-7.3,5.22c-.72.52-1.31.13-1.31-.86v-6a3.74,3.74,0,0,1,1.31-2.73Z"/><path id="rect5771" class="cls-3" d="M62.14,59.83,70,54.2c.56-.4,1,.23,1,1.42v5.32a4,4,0,0,1-1,2.88l-7.87,5.63c-.57.4-1-.23-1-1.42V62.71a4,4,0,0,1,1-2.88Z"/><path id="rect5773" class="cls-3" d="M62.31,71.34l7-5c.8-.57,1.44,0,1.44,1.29v5a4.54,4.54,0,0,1-1.44,3.36l-7,5c-.8.57-1.44,0-1.44-1.29v-5a4.54,4.54,0,0,1,1.44-3.35Z"/><path id="rect5775" class="cls-3" d="M73.4,63l7.31-5.23c.72-.51,1.3-.12,1.3.87v6a3.72,3.72,0,0,1-1.3,2.73L73.4,72.6c-.71.52-1.3.12-1.3-.87v-6A3.76,3.76,0,0,1,73.4,63Z"/><path id="rect5777" class="cls-3" d="M73.43,52,81,46.55c.65-.46,1.17,0,1.17,1V53.5A3.62,3.62,0,0,1,81,56.18L73.43,61.6c-.65.46-1.17,0-1.17-1V54.65A3.61,3.61,0,0,1,73.43,52Z"/><path id="rect5779" class="cls-3" d="M73.43,40.1,81,34.67c.65-.46,1.17-.3,1.17.35v7.26a2.86,2.86,0,0,1-1.17,2l-7.58,5.43c-.65.46-1.17.31-1.17-.35V42.11a2.86,2.86,0,0,1,1.17-2Z"/><path id="rect8055" class="cls-2" d="M39.23,74.73l7.34,4.93a3.8,3.8,0,0,1,1.25,2.88v5.54c0,1.13-.56,1.67-1.25,1.2l-7.34-4.93A3.79,3.79,0,0,1,38,81.48V75.94c0-1.13.55-1.67,1.24-1.21Z"/><path id="rect8815" class="cls-3" d="M39.4,62.82l7.34,4.93A2.78,2.78,0,0,1,48,69.65v7.49c0,.59-.56.69-1.24.23L39.4,72.44a2.78,2.78,0,0,1-1.25-1.91V63.05c0-.59.56-.7,1.25-.23Z"/><path id="rect8817" class="cls-3" d="M39.4,51.43l7.34,4.93A3.07,3.07,0,0,1,48,58.59v6.84c0,.77-.56,1-1.24.56L39.4,61.05a3,3,0,0,1-1.25-2.22V52c0-.77.56-1,1.25-.56Z"/><path id="rect8819" class="cls-3" d="M28.16,67.28l7.34,4.93a3.44,3.44,0,0,1,1.25,2.6v6.1c0,1-.56,1.39-1.25.92L28.16,76.9a3.42,3.42,0,0,1-1.24-2.6V68.21c0-1,.55-1.39,1.24-.93Z"/><path id="rect8821" class="cls-2" d="M28.16,55.63l7.34,4.93a3.63,3.63,0,0,1,1.25,2.73v5.84c0,1.05-.56,1.52-1.25,1.06l-7.34-4.93a3.62,3.62,0,0,1-1.24-2.73V56.69c0-1,.55-1.52,1.24-1.06Z"/><path id="rect8823" class="cls-3" d="M28.24,44.41l7.34,4.93a3.16,3.16,0,0,1,1.25,2.35v6.59c0,.84-.56,1.15-1.25.68L28.24,54A3.14,3.14,0,0,1,27,51.68V45.09c0-.84.56-1.14,1.24-.68Z"/><path id="rect8825" class="cls-3" d="M16.84,59.73l7.34,4.93a3,3,0,0,1,1.25,2.13v7c0,.71-.56.92-1.25.45l-7.34-4.93a3,3,0,0,1-1.24-2.13v-7c0-.72.56-.92,1.24-.46Z"/><path id="rect8827" class="cls-3" d="M17,48.56l7.34,4.93a2.89,2.89,0,0,1,1.25,2.08v7.14c0,.68-.56.86-1.25.4L17,58.18a2.89,2.89,0,0,1-1.25-2.07V49c0-.68.56-.86,1.25-.4Z"/><path id="rect8829" class="cls-3" d="M17,37.07,24.35,42a2.8,2.8,0,0,1,1.25,1.93v7.43c0,.61-.56.72-1.25.26L17,46.69a2.78,2.78,0,0,1-1.25-1.93V37.33c0-.61.56-.72,1.25-.26Z"/><g id="g11205"><path id="rect10429" class="cls-3" d="M26.79,28.3,35,33.5c.41.26.1.92-.69,1.47L27.82,39.5c-.78.55-1.75.79-2.15.54l-8.18-5.2c-.4-.26-.09-.92.7-1.47l6.44-4.53c.79-.55,1.76-.79,2.16-.54Z"/><path id="rect11189" class="cls-3" d="M37.91,35.67l8.17,5.19c.41.26.1.92-.69,1.47l-6.45,4.53c-.78.55-1.75.79-2.15.54l-8.18-5.2c-.4-.26-.09-.91.7-1.47l6.45-4.53a2.44,2.44,0,0,1,2.15-.54Z"/><path id="rect11191" class="cls-3" d="M49.33,42.92l8.17,5.2c.41.26.1.92-.69,1.47l-6.45,4.53c-.78.55-1.75.79-2.15.53L40,49.46c-.4-.26-.09-.92.69-1.47l6.45-4.53c.79-.55,1.75-.79,2.16-.53Z"/><path id="rect11193" class="cls-3" d="M38.05,20.49l8.18,5.2c.4.26.09.91-.69,1.47l-6.45,4.53c-.79.55-1.75.79-2.16.53L28.76,27c-.41-.25-.1-.91.69-1.46L35.9,21c.79-.55,1.75-.79,2.15-.54Z"/><path id="rect11195" class="cls-3" d="M49.31,27.65l8.18,5.2c.4.25.1.91-.69,1.46l-6.45,4.53c-.79.56-1.75.8-2.15.54L40,34.18c-.4-.26-.09-.91.69-1.46l6.45-4.54c.78-.55,1.75-.79,2.15-.53Z"/><path id="rect11197" class="cls-3" d="M61,35.06l8.18,5.2c.4.26.1.92-.69,1.47L62,46.26c-.79.55-1.75.79-2.15.54l-8.18-5.2c-.4-.26-.09-.92.69-1.47l6.45-4.53c.78-.55,1.75-.79,2.15-.54Z"/><path id="rect11199" class="cls-3" d="M49,12.81,57.16,18c.41.26.1.92-.69,1.47L50,24c-.78.55-1.75.79-2.15.54l-8.18-5.2c-.4-.26-.09-.91.7-1.47l6.45-4.53c.78-.55,1.75-.79,2.15-.54Z"/><path id="rect11201" class="cls-3" d="M60.57,20l8.18,5.2c.4.26.09.91-.69,1.47l-6.45,4.53c-.79.55-1.75.79-2.16.53l-8.17-5.2c-.41-.25-.1-.91.69-1.46l6.45-4.53A2.42,2.42,0,0,1,60.57,20Z"/><path id="rect11203" class="cls-3" d="M71.92,27.37l8.18,5.2c.4.26.09.91-.7,1.47L73,38.57c-.78.55-1.75.79-2.15.53l-8.18-5.2c-.4-.25-.09-.91.7-1.46l6.45-4.53c.78-.55,1.75-.79,2.15-.54Z"/></g><path class="cls-4" d="M66.53,35.21h-15V23.9h15V8.31H78.89V23.9H94V35.21H78.89V50.72H66.53Z"/></svg>