<svg id="Layer_1" data-name="Layer 1" xmlns="http://www.w3.org/2000/svg" viewBox="0 0 100 100"><path id="rect5765" d="M52.89,72.16l10.3-7.42c1.17-.85,2.12-.61,2.12.52V75.38A5.22,5.22,0,0,1,63.19,79l-10.3,7.42c-1.17.85-2.12.62-2.12-.52V75.75a5.14,5.14,0,0,1,2.12-3.59Z" fill="#f89820"/><path id="rect5767" d="M52,55.29l12.06-8.7c.68-.49,1.24.49,1.24,2.19v8.07c0,1.7-.56,3.48-1.24,4L52,69.52c-.68.5-1.24-.48-1.24-2.18V59.27c0-1.71.55-3.49,1.24-4Z" fill="#fbc179"/><path id="rect5769" d="M69.32,42.71,80.12,35c1.07-.77,1.93-.19,1.93,1.28v8.91a5.49,5.49,0,0,1-1.93,4l-10.8,7.73c-1.07.76-1.93.18-1.93-1.29v-8.9a5.47,5.47,0,0,1,1.93-4Z" fill="#fbc179"/><path id="rect5771" d="M68.9,60.4l11.64-8.32c.83-.6,1.51.34,1.51,2.1v7.87c0,1.76-.68,3.66-1.51,4.26L68.9,74.64c-.83.59-1.51-.35-1.51-2.1V64.67c0-1.76.68-3.67,1.51-4.27Z" fill="#fbc179"/><path id="rect8815" d="M35.27,64.82l10.85,7.3A4.1,4.1,0,0,1,48,74.93V86c0,.88-.83,1-1.85.35l-10.85-7.3a4.08,4.08,0,0,1-1.84-2.81V65.17c0-.88.82-1,1.84-.35Z" fill="#f89820"/><path id="rect8817" d="M35.27,48l10.85,7.29A4.49,4.49,0,0,1,48,58.57V68.69c0,1.14-.83,1.5-1.85.82L35.27,62.22a4.47,4.47,0,0,1-1.84-3.29V48.8c0-1.13.82-1.49,1.84-.81Z" fill="#fbc179"/><path id="rect8821" d="M18.65,54.2l10.86,7.29a5.34,5.34,0,0,1,1.84,4v8.64c0,1.54-.82,2.24-1.84,1.56l-10.86-7.3a5.31,5.31,0,0,1-1.84-4V55.76c0-1.55.83-2.24,1.84-1.56Z" fill="#fbc179"/><path id="rect8823" d="M18.77,37.6l10.86,7.29a4.69,4.69,0,0,1,1.84,3.48v9.75c0,1.24-.82,1.69-1.84,1l-10.86-7.3a4.66,4.66,0,0,1-1.84-3.48V38.61c0-1.24.83-1.69,1.84-1Z" fill="#fbc179"/><g id="g11205"><path id="rect11189" d="M33.07,24.67l12.09,7.69c.6.38.14,1.35-1,2.16L34.6,41.23C33.44,42,32,42.4,31.41,42L19.32,34.33c-.6-.38-.14-1.35,1-2.17l9.54-6.7c1.16-.82,2.59-1.17,3.18-.8Z" fill="#fbc179"/><path id="rect11191" d="M50,35.4l12.09,7.69c.6.38.14,1.35-1,2.17L51.49,52c-1.16.82-2.59,1.17-3.19.79L36.21,45.06c-.6-.38-.14-1.35,1-2.16l9.54-6.71c1.16-.81,2.59-1.16,3.19-.78Z" fill="#fbc179"/><path id="rect11195" d="M49.94,12.81,62,20.5c.6.38.14,1.35-1,2.17l-9.54,6.7c-1.16.82-2.59,1.17-3.19.79L36.19,22.47c-.6-.38-.14-1.35,1-2.17l9.54-6.7c1.16-.82,2.59-1.17,3.18-.79Z" fill="#fbc179"/><path id="rect11197" d="M67.18,23.78l12.1,7.69c.59.38.14,1.35-1,2.16l-9.53,6.71c-1.17.81-2.59,1.17-3.19.79L53.44,33.44c-.6-.38-.14-1.35,1-2.17L64,24.57c1.16-.82,2.58-1.17,3.18-.79Z" fill="#fbc179"/></g></svg>