<svg id="Layer_1" data-name="Layer 1" xmlns="http://www.w3.org/2000/svg" viewBox="0 0 100 100"><path d="M34,30,58.45,13a1.63,1.63,0,0,1,1.81,0L85.39,29a1.63,1.63,0,0,1,.75,1.37V55.53a1.65,1.65,0,0,1-.67,1.33L60.28,75.09a1.62,1.62,0,0,1-1.89,0L34,58a1.63,1.63,0,0,1-.69-1.33V31.34A1.61,1.61,0,0,1,34,30Z" fill="#f89820"/><path id="rect5005" d="M61.29,66.14l5.61-4c.55-.4,1-.33,1,.16v5.68a2.41,2.41,0,0,1-1,1.61l-5.61,4c-.56.4-1,.32-1-.17V67.75a2.39,2.39,0,0,1,1-1.61Z" fill="#fbc179"/><path id="rect5765" d="M61.59,56.88,67,53c.61-.44,1.11-.32,1.11.27v5.31A2.73,2.73,0,0,1,67,60.44l-5.39,3.89c-.62.45-1.12.32-1.12-.27v-5.3a2.72,2.72,0,0,1,1.11-1.88Z" fill="#fbc179"/><path id="rect5767" d="M61.12,48l6.32-4.55c.36-.26.65.25.65,1.14v4.23a3,3,0,0,1-.65,2.08L61.12,55.5c-.35.26-.65-.26-.65-1.15V50.12A3,3,0,0,1,61.12,48Z" fill="#fbc179"/><path id="rect5769" d="M70.19,41.45l5.66-4.05c.56-.4,1-.1,1,.67v4.67a2.85,2.85,0,0,1-1,2.11l-5.66,4c-.56.4-1,.1-1-.67V43.57a2.87,2.87,0,0,1,1-2.12Z" fill="#fbc179"/><path id="rect5771" d="M70,50.72l6.1-4.36c.44-.31.79.18.79,1.1v4.12a3.08,3.08,0,0,1-.79,2.23L70,58.18c-.43.31-.79-.18-.79-1.1V53A3.12,3.12,0,0,1,70,50.72Z" fill="#fbc179"/><path id="rect5773" d="M70.11,59.64l5.44-3.9c.62-.44,1.12,0,1.12,1V60.6a3.53,3.53,0,0,1-1.12,2.6l-5.44,3.89c-.62.44-1.12,0-1.12-1V62.24a3.51,3.51,0,0,1,1.12-2.6Z" fill="#fbc179"/><path id="rect5775" d="M78.7,53.16l5.66-4c.56-.4,1-.09,1,.68v4.65a2.89,2.89,0,0,1-1,2.13l-5.66,4c-.56.39-1,.09-1-.68V55.28a2.92,2.92,0,0,1,1-2.12Z" fill="#fbc179"/><path id="rect5777" d="M78.72,44.64l5.88-4.2c.49-.36.9,0,.9.78v4.6a2.8,2.8,0,0,1-.9,2.07L78.72,52.1c-.5.35-.9,0-.9-.79v-4.6a2.8,2.8,0,0,1,.9-2.07Z" fill="#fbc179"/><path id="rect5779" d="M78.72,35.43l5.88-4.2c.49-.36.9-.24.9.27v5.63a2.2,2.2,0,0,1-.9,1.55l-5.88,4.21c-.5.36-.9.24-.9-.27V37a2.2,2.2,0,0,1,.9-1.55Z" fill="#fbc179"/><path id="rect8055" d="M52.22,62.27l5.69,3.82a2.9,2.9,0,0,1,1,2.23v4.29c0,.87-.43,1.29-1,.93l-5.69-3.82a3,3,0,0,1-1-2.23V63.2c0-.87.43-1.29,1-.93Z" fill="#fbc179"/><path id="rect8815" d="M52.35,53,58,56.85a2.17,2.17,0,0,1,1,1.48v5.8c0,.46-.44.54-1,.18l-5.69-3.82a2.16,2.16,0,0,1-1-1.48V53.22c0-.46.43-.54,1-.19Z" fill="#fbc179"/><path id="rect8817" d="M52.35,44.22,58,48a2.35,2.35,0,0,1,1,1.72v5.3c0,.6-.44.79-1,.43l-5.69-3.82a2.36,2.36,0,0,1-1-1.72V44.64c0-.59.43-.78,1-.42Z" fill="#fbc179"/><path id="rect8819" d="M43.65,56.5l5.69,3.82a2.66,2.66,0,0,1,1,2v4.72c0,.76-.43,1.08-1,.72L43.65,64a2.68,2.68,0,0,1-1-2V57.21c0-.75.44-1.07,1-.71Z" fill="#fbc179"/><path id="rect8821" d="M43.65,47.47l5.69,3.82a2.79,2.79,0,0,1,1,2.11v4.53c0,.81-.43,1.17-1,.82l-5.69-3.82a2.82,2.82,0,0,1-1-2.12V48.29c0-.81.44-1.18,1-.82Z" fill="#fbc179"/><path id="rect8823" d="M43.71,38.78,49.4,42.6a2.43,2.43,0,0,1,1,1.82v5.1c0,.65-.43.89-1,.53l-5.69-3.82a2.45,2.45,0,0,1-1-1.82V39.3c0-.65.43-.88,1-.52Z" fill="#fbc179"/><path id="rect8825" d="M34.88,50.64l5.69,3.82a2.29,2.29,0,0,1,1,1.65v5.46c0,.55-.43.71-1,.35L34.88,58.1a2.29,2.29,0,0,1-1-1.65V51c0-.56.43-.71,1-.36Z" fill="#fbc179"/><path id="rect8827" d="M35,42l5.69,3.82a2.26,2.26,0,0,1,1,1.61V53c0,.53-.43.67-1,.32L35,49.45a2.27,2.27,0,0,1-1-1.61V42.3c0-.53.44-.67,1-.31Z" fill="#fbc179"/><path id="rect8829" d="M35,33.09l5.69,3.82a2.17,2.17,0,0,1,1,1.5v5.75c0,.47-.43.56-1,.2L35,40.54a2.17,2.17,0,0,1-1-1.49V33.29c0-.47.44-.56,1-.2Z" fill="#fbc179"/><g id="g11205"><path id="rect10429" d="M42.59,26.3l6.33,4c.31.2.07.71-.54,1.14l-5,3.51a1.91,1.91,0,0,1-1.67.42l-6.34-4c-.31-.2-.07-.71.54-1.14l5-3.51a1.86,1.86,0,0,1,1.67-.41Z" fill="#fbc179"/><path id="rect11189" d="M51.2,32l6.34,4c.31.2.07.7-.54,1.13l-5,3.51c-.61.43-1.35.62-1.67.42l-6.33-4c-.31-.2-.07-.71.54-1.13l5-3.52c.61-.42,1.36-.61,1.67-.41Z" fill="#fbc179"/><path id="rect11191" d="M60.05,37.62l6.33,4c.32.2.08.71-.53,1.14l-5,3.51c-.61.43-1.36.61-1.67.41l-6.33-4c-.32-.19-.08-.7.53-1.13l5-3.51c.61-.43,1.36-.61,1.67-.41Z" fill="#fbc179"/><path id="rect11193" d="M51.31,20.24l6.34,4c.31.2.07.71-.54,1.14l-5,3.51c-.6.43-1.35.61-1.66.41l-6.34-4c-.31-.2-.07-.71.54-1.14l5-3.51c.61-.43,1.36-.61,1.67-.41Z" fill="#fbc179"/><path id="rect11195" d="M60,25.79l6.33,4c.32.2.08.7-.53,1.13l-5,3.51c-.61.43-1.35.62-1.67.42l-6.33-4c-.32-.2-.08-.71.53-1.14l5-3.51A1.86,1.86,0,0,1,60,25.79Z" fill="#fbc179"/><path id="rect11197" d="M69.07,31.53l6.34,4c.31.2.07.71-.54,1.14l-5,3.51c-.6.43-1.35.61-1.66.41l-6.34-4c-.31-.19-.07-.7.54-1.13l5-3.51a1.91,1.91,0,0,1,1.67-.42Z" fill="#fbc179"/><path id="rect11199" d="M59.79,14.29l6.33,4c.31.2.07.7-.54,1.13l-5,3.51c-.61.43-1.36.62-1.67.42l-6.34-4c-.31-.2-.07-.71.54-1.14l5-3.51a1.86,1.86,0,0,1,1.67-.41Z" fill="#fbc179"/><path id="rect11201" d="M68.76,19.83l6.33,4c.32.2.08.71-.53,1.14l-5,3.51a1.86,1.86,0,0,1-1.67.41l-6.33-4c-.31-.2-.07-.71.53-1.14l5-3.51c.61-.43,1.36-.61,1.67-.41Z" fill="#fbc179"/><path id="rect11203" d="M77.55,25.57l6.34,4c.31.2.07.71-.54,1.14l-5,3.51a1.86,1.86,0,0,1-1.67.41l-6.33-4c-.31-.2-.07-.71.54-1.14l5-3.51a1.91,1.91,0,0,1,1.67-.42Z" fill="#fbc179"/></g><path d="M50.3,54.15,15.45,24.21a.86.86,0,0,0-1.42.65v46a.86.86,0,0,0,1.47.6l9.43-9.56a.85.85,0,0,1,1.38.23L38.1,86.85a.86.86,0,0,0,1.14.41l9.31-4.43a.85.85,0,0,0,.4-1.14l-11.42-24a.85.85,0,0,1,.71-1.22l11.56-.8A.85.85,0,0,0,50.3,54.15Z"/></svg>