<svg id="Layer_1" data-name="Layer 1" xmlns="http://www.w3.org/2000/svg" viewBox="0 0 100 100"><polygon points="38.45 86.74 12.05 72.08 12.05 17.68 38.45 32.34 38.45 86.74" fill="#fbc179" stroke="#fff" stroke-linecap="round" stroke-linejoin="round" stroke-width="2"/><polygon points="38.45 86.74 88.26 82.08 88.26 27.61 38.45 32.34 38.45 86.74" fill="#fbc179" stroke="#fff" stroke-linecap="round" stroke-linejoin="round" stroke-width="2"/><polygon points="12.05 17.68 60.03 13.84 88.26 27.61 38.45 32.34 12.05 17.68" fill="#fbc179" stroke="#fff" stroke-linecap="round" stroke-linejoin="round" stroke-width="2"/><polyline points="87.72 64.87 38 69.86 13.02 56.91" fill="none" stroke="#fff" stroke-linecap="round" stroke-linejoin="round" stroke-width="2"/><polyline points="12.52 38.15 37.5 51.1 87.22 46.11" fill="none" stroke="#fff" stroke-linecap="round" stroke-linejoin="round" stroke-width="2"/><line x1="38.13" y1="86.76" x2="11.74" y2="72.1" fill="none" stroke="#fff" stroke-linecap="round" stroke-linejoin="round" stroke-width="2"/><polygon points="11.74 72.1 38.13 86.76 38.13 69.96 11.74 55.3 11.74 72.1" fill="#f89820" stroke="#fff" stroke-linecap="round" stroke-linejoin="round" stroke-width="2"/><polygon points="38.45 86.74 88.26 82.08 88.26 65 38.45 69.73 38.45 86.74" fill="#f89820" stroke="#fff" stroke-linecap="round" stroke-linejoin="round" stroke-width="2"/></svg>