<svg id="Layer_1" data-name="Layer 1" xmlns="http://www.w3.org/2000/svg" viewBox="0 0 100 100"><rect x="11.9" y="39.92" width="63.27" height="52.89" rx="2.26" fill="#2d7dd2"/><polygon points="68.03 87.92 20.13 87.92 20.13 25.93 48.71 25.93 68.03 43.02 68.03 87.92" fill="#fff" stroke="#999" stroke-linecap="round" stroke-linejoin="round" stroke-width="1"/><path d="M25.1,35.2c1.27,0,1.27.66,2.53.66s1.27-.66,2.53-.66,1.27.66,2.54.66,1.26-.66,2.53-.66,1.27.66,2.53.66S39,35.2,40.3,35.2s1.26.66,2.52.66,1.27-.66,2.54-.66,1.26.66,2.53.66,1.27-.66,2.54-.66,1.27.66,2.53.66,1.27-.66,2.54-.66,1.27.66,2.54.66" fill="none" stroke="#999" stroke-linecap="round" stroke-linejoin="round" stroke-width="1"/><path d="M25.1,42.85c1.72,0,1.72,2,3.45,2s1.72-2,3.45-2,1.72,2,3.45,2,1.72-2,3.45-2,1.72,2,3.45,2,1.72-2,3.44-2,1.73,2,3.45,2,1.73-2,3.45-2,1.73,2,3.46,2,1.72-2,3.45-2,1.73,2,3.46,2" fill="none" stroke="#999" stroke-linecap="round" stroke-linejoin="round" stroke-width="1"/><path d="M25.1,51.79c1.46,0,1.46.76,2.92.76s1.46-.76,2.91-.76,1.46.76,2.92.76,1.46-.76,2.92-.76,1.46.76,2.92.76,1.46-.76,2.92-.76,1.46.76,2.92.76,1.46-.76,2.92-.76,1.46.76,2.92.76,1.46-.76,2.92-.76,1.46.76,2.92.76,1.46-.76,2.92-.76,1.47.76,2.93.76" fill="none" stroke="#999" stroke-linecap="round" stroke-linejoin="round" stroke-width="1"/><path d="M25.1,59.48c1.72,0,1.72,2,3.45,2s1.72-2,3.45-2,1.72,2,3.45,2,1.72-2,3.45-2,1.72,2,3.45,2,1.72-2,3.44-2,1.73,2,3.45,2,1.73-2,3.45-2,1.73,2,3.46,2,1.72-2,3.45-2,1.73,2,3.46,2" fill="none" stroke="#999" stroke-linecap="round" stroke-linejoin="round" stroke-width="1"/><polygon points="49.04 25.93 68.03 42.95 49.04 42.95 49.04 25.93" fill="#fff" stroke="#999" stroke-linecap="round" stroke-linejoin="round" stroke-width="1"/><rect x="30.07" y="18.42" width="14.11" height="13.16" transform="translate(12.12 62.13) rotate(-90)" fill="#11619a"/><polygon points="21.77 19.78 37.18 6.61 52.48 19.69 21.77 19.78" fill="#11619a"/><path d="M75.57,92.82H15L26.71,51a3.52,3.52,0,0,1,3.38-2.57h56a3.52,3.52,0,0,1,3.38,4.47L79,90.26A3.52,3.52,0,0,1,75.57,92.82Z" fill="#11619a"/></svg>