<svg id="Layer_1" data-name="Layer 1" xmlns="http://www.w3.org/2000/svg" viewBox="0 0 100 100"><path d="M51,48l5.59,3.08a.72.72,0,0,1,0,1.26L51,55.38a1.43,1.43,0,0,1-1.39,0L44,52.31a.72.72,0,0,1,0-1.26L49.59,48A1.43,1.43,0,0,1,51,48Zm-.69-2.31-10.93,6h0l10.93,6,10.92-6h0l-10.92-6Z" fill="#fff"/><path d="M20.7,40.85V62.56h0v2.91a5.44,5.44,0,0,0,2.73,4.71L47.56,84.07a5.48,5.48,0,0,0,5.43,0L77.13,70.18a5.45,5.45,0,0,0,2.72-4.71V62.56h0V40.85h0V37.79a5.43,5.43,0,0,0-2.75-4.73L53,19.32a5.45,5.45,0,0,0-5.38,0L23.45,33.06a5.43,5.43,0,0,0-2.75,4.73v3.06m0,0h0" fill="none" stroke="#fff" stroke-linecap="round" stroke-linejoin="round" stroke-width="2.49"/><polygon points="20.7 62.56 40.42 51.71 20.7 40.85 20.7 62.56" fill="#71675c"/><path d="M77.1,33.06,53,19.32a5.47,5.47,0,0,0-2.69-.71V46.28h0l9.86,5.43L79.85,40.85V37.79A5.43,5.43,0,0,0,77.1,33.06Z" fill="#2d7dd2"/><path d="M47.59,19.32,23.45,33.06a5.43,5.43,0,0,0-2.75,4.73v3.06L40.42,51.71l9.86-5.43V18.61A5.47,5.47,0,0,0,47.59,19.32Z" fill="#11619a"/><path d="M40.42,51.71,20.7,62.56v2.91a5.44,5.44,0,0,0,2.73,4.71L47.56,84.07a5.48,5.48,0,0,0,2.72.72V57.14Z" fill="#97897b"/><path d="M50.28,57.14h0V84.79A5.44,5.44,0,0,0,53,84.07L77.13,70.18a5.45,5.45,0,0,0,2.72-4.71V62.56L60.14,51.71Z" fill="#f89820"/><polygon points="79.86 62.56 79.86 40.85 60.14 51.71 79.86 62.56" fill="#fbc179"/></svg>