<svg id="Layer_1" data-name="Layer 1" xmlns="http://www.w3.org/2000/svg" viewBox="0 0 100 100"><path d="M12.2,29.84l35.88-25a2.37,2.37,0,0,1,2.65-.06L87.57,28.37a2.41,2.41,0,0,1,1.1,2V67.26a2.4,2.4,0,0,1-1,1.94L50.77,95.93A2.41,2.41,0,0,1,48,96L12.19,70.82a2.41,2.41,0,0,1-1-2V31.8A2.39,2.39,0,0,1,12.2,29.84Z" fill="#2d7dd2"/><path id="rect5005" d="M52.24,82.81l8.22-5.93c.81-.59,1.47-.48,1.47.24v8.32a3.5,3.5,0,0,1-1.47,2.36l-8.22,5.93c-.82.59-1.47.48-1.47-.24V85.17a3.47,3.47,0,0,1,1.47-2.36Z" fill="#11619a"/><path id="rect5765" d="M52.68,69.23l7.9-5.7c.9-.65,1.63-.47,1.63.41v7.77a4,4,0,0,1-1.63,2.75l-7.9,5.7c-.9.65-1.63.47-1.63-.4V72a4,4,0,0,1,1.62-2.76Z" fill="#11619a"/><path id="rect5767" d="M52,56.28l9.26-6.67c.52-.38,1,.37,1,1.67v6.2a4.44,4.44,0,0,1-1,3.05L52,67.21c-.53.38-1-.37-1-1.68v-6.2a4.34,4.34,0,0,1,1-3Z" fill="#11619a"/><path id="rect5769" d="M65.28,46.62l8.3-5.94c.82-.58,1.48-.14,1.48,1v6.84a4.21,4.21,0,0,1-1.48,3.1l-8.3,5.94c-.81.58-1.47.14-1.47-1V49.72a4.23,4.23,0,0,1,1.47-3.1Z" fill="#11619a"/><path id="rect5771" d="M65,60.21l8.93-6.39c.64-.46,1.16.26,1.16,1.61v6a4.55,4.55,0,0,1-1.16,3.27L65,71.13c-.64.46-1.16-.26-1.16-1.61v-6A4.55,4.55,0,0,1,65,60.21Z" fill="#11619a"/><path id="rect5773" d="M65.16,73.28l8-5.71c.91-.65,1.64,0,1.64,1.47v5.64a5.14,5.14,0,0,1-1.64,3.81l-8,5.71c-.9.65-1.63,0-1.63-1.47V77.09a5.21,5.21,0,0,1,1.63-3.82Z" fill="#11619a"/><path id="rect5775" d="M77.76,63.78l8.3-5.93c.82-.59,1.48-.14,1.48,1v6.83a4.21,4.21,0,0,1-1.48,3.1l-8.3,5.94c-.82.58-1.48.14-1.48-1V66.89a4.25,4.25,0,0,1,1.48-3.11Z" fill="#11619a"/><path id="rect5777" d="M77.79,51.3l8.61-6.17c.73-.52,1.32,0,1.32,1.15V53a4.12,4.12,0,0,1-1.32,3l-8.61,6.16c-.73.52-1.32,0-1.32-1.14V54.33a4.07,4.07,0,0,1,1.31-3Z" fill="#11619a"/><path id="rect5779" d="M77.79,37.81l8.61-6.17c.73-.52,1.32-.34,1.32.4v8.25a3.25,3.25,0,0,1-1.32,2.28l-8.61,6.16c-.73.52-1.32.35-1.32-.39V40.09a3.2,3.2,0,0,1,1.31-2.28Z" fill="#11619a"/><path id="rect8055" d="M39,77.13l8.33,5.6A4.33,4.33,0,0,1,48.71,86v6.29c0,1.28-.64,1.89-1.42,1.36L39,88.06a4.34,4.34,0,0,1-1.42-3.27V78.5c0-1.28.64-1.9,1.42-1.37Z" fill="#11619a"/><path id="rect8815" d="M39.14,63.6l8.34,5.6a3.13,3.13,0,0,1,1.41,2.16v8.5c0,.67-.63.79-1.41.26l-8.34-5.59a3.17,3.17,0,0,1-1.41-2.17v-8.5c0-.67.63-.79,1.41-.26Z" fill="#11619a"/><path id="rect8817" d="M39.14,50.67l8.34,5.6a3.46,3.46,0,0,1,1.41,2.53v7.77c0,.87-.63,1.15-1.41.63l-8.34-5.6a3.44,3.44,0,0,1-1.41-2.53V51.3c0-.87.63-1.15,1.41-.62Z" fill="#11619a"/><path id="rect8819" d="M26.39,68.67l8.33,5.6a3.88,3.88,0,0,1,1.42,3v6.92c0,1.11-.63,1.58-1.42,1.06l-8.33-5.6a3.94,3.94,0,0,1-1.42-3V69.72c0-1.1.64-1.57,1.42-1Z" fill="#11619a"/><path id="rect8821" d="M26.39,55.45,34.72,61a4.08,4.08,0,0,1,1.42,3.1v6.63c0,1.19-.63,1.72-1.42,1.2l-8.33-5.6A4.09,4.09,0,0,1,25,63.27V56.64c0-1.18.64-1.72,1.42-1.2Z" fill="#11619a"/><path id="rect8823" d="M26.48,42.7l8.34,5.6A3.58,3.58,0,0,1,36.23,51v7.48c0,.95-.63,1.3-1.41.78l-8.34-5.6A3.6,3.6,0,0,1,25.07,51V43.47c0-.95.63-1.29,1.41-.77Z" fill="#11619a"/><path id="rect8825" d="M13.54,60.1l8.33,5.6a3.33,3.33,0,0,1,1.42,2.41v8c0,.81-.64,1.05-1.42.52L13.54,71a3.33,3.33,0,0,1-1.42-2.42v-8c0-.81.64-1,1.42-.51Z" fill="#11619a"/><path id="rect8827" d="M13.72,47.41,22.06,53a3.3,3.3,0,0,1,1.41,2.36v8.11c0,.78-.63,1-1.41.46l-8.34-5.6A3.3,3.3,0,0,1,12.31,56V47.87c0-.78.63-1,1.42-.46Z" fill="#11619a"/><path id="rect8829" d="M13.72,34.37,22.06,40a3.18,3.18,0,0,1,1.41,2.2V50.6c0,.68-.63.81-1.41.29l-8.34-5.6a3.17,3.17,0,0,1-1.41-2.19V34.66c0-.69.63-.82,1.42-.29Z" fill="#11619a"/><g id="g11205"><path id="rect10429" d="M24.83,24.41l9.28,5.91c.46.29.11,1-.78,1.66L26,37.13c-.9.62-2,.89-2.45.6l-9.28-5.9c-.46-.29-.11-1,.78-1.66L22.38,25c.9-.63,2-.9,2.45-.61Z" fill="#11619a"/><path id="rect11189" d="M37.46,32.77l9.28,5.9c.46.3.11,1-.79,1.67l-7.32,5.14c-.89.63-2,.9-2.44.61l-9.29-5.9c-.46-.29-.1-1,.79-1.66L35,33.38c.89-.63,2-.9,2.44-.61Z" fill="#11619a"/><path id="rect11191" d="M50.42,41l9.29,5.91c.45.29.1,1-.79,1.66L51.6,53.73c-.89.62-2,.9-2.45.6l-9.28-5.9c-.46-.29-.11-1,.78-1.66L48,41.62c.89-.62,2-.9,2.44-.6Z" fill="#11619a"/><path id="rect11193" d="M37.62,15.54l9.28,5.91c.46.29.11,1-.78,1.66L38.8,28.26c-.9.62-2,.89-2.45.6L27.07,23c-.46-.29-.11-1,.78-1.66l7.32-5.15c.9-.63,2-.9,2.45-.61Z" fill="#11619a"/><path id="rect11195" d="M50.41,23.67l9.28,5.9c.46.29.11,1-.78,1.66l-7.33,5.15c-.89.63-2,.9-2.44.61l-9.29-5.91c-.45-.29-.1-1,.79-1.66L48,24.27c.89-.62,2-.89,2.44-.6Z" fill="#11619a"/><path id="rect11197" d="M63.65,32.09,72.93,38c.46.29.11,1-.78,1.66L64.82,44.8c-.89.63-2,.9-2.44.61l-9.29-5.9c-.45-.3-.1-1,.79-1.67L61.2,32.7c.89-.63,2-.9,2.44-.61Z" fill="#11619a"/><path id="rect11199" d="M50,6.81l9.28,5.91c.46.29.11,1-.78,1.66l-7.33,5.15c-.89.62-2,.9-2.44.61l-9.29-5.91c-.45-.29-.1-1,.79-1.66l7.32-5.15c.9-.63,2-.9,2.45-.61Z" fill="#11619a"/><path id="rect11201" d="M63.19,14.93l9.28,5.9c.46.29.11,1-.78,1.67l-7.32,5.14c-.9.63-2,.9-2.45.61l-9.28-5.9c-.46-.3-.11-1,.78-1.67l7.32-5.14c.9-.63,2-.9,2.45-.61Z" fill="#11619a"/><path id="rect11203" d="M76.07,23.35l9.29,5.91c.46.29.1,1-.79,1.66l-7.32,5.15c-.89.62-2,.9-2.45.6l-9.28-5.9c-.46-.29-.11-1,.79-1.66L73.63,24c.89-.62,2-.9,2.44-.61Z" fill="#11619a"/></g><path d="M35.81,22.65c-7.22,4.52-9.64,8-10.34,9.23a3.14,3.14,0,0,0-4.15,4.62l4.84,5.78a3.14,3.14,0,0,0,4.82-4l0,0c.43-.6,1-1.41,1.78-2.32l31.62,41a2.74,2.74,0,0,0,3.94.42l5.52-4.62a2.74,2.74,0,0,0,.26-4L38.75,30.05a16.33,16.33,0,0,1,2.17-1.32c4.49-2.22,8.63-2.34,11-3a.51.51,0,0,0,.16-.91C49.68,23.18,43.22,18,35.81,22.65Z" fill="#fff"/><path d="M75.59,38.58a11.25,11.25,0,0,0,1.57-12l-7.48,8.92-5.79-.36-1-6.35,7-8.33A11.25,11.25,0,0,0,57.4,37.27L27.07,70.51a2.33,2.33,0,0,0,.22,3.36L32,77.8a2.33,2.33,0,0,0,3.35-.37L62.79,41.79A11.25,11.25,0,0,0,75.59,38.58Z" fill="#fff"/></svg>