<svg id="Layer_1" data-name="Layer 1" xmlns="http://www.w3.org/2000/svg" viewBox="0 0 100 100"><path d="M46.78,82.48a6.43,6.43,0,0,1-3.21-.86L19.43,67.74a6.48,6.48,0,0,1-3.23-5.59V34.47a6.48,6.48,0,0,1,1.34-3.93,6.4,6.4,0,0,1,1.92-1.67L43.59,15.14a6.4,6.4,0,0,1,5.62-.37,7.51,7.51,0,0,1,.76.36L74.1,28.87A6.19,6.19,0,0,1,76,30.54a6.54,6.54,0,0,1,1.34,3.93V62.15a6.39,6.39,0,0,1-.5,2.48,6.53,6.53,0,0,1-.37.75,6.21,6.21,0,0,1-1,1.32,6.78,6.78,0,0,1-1.34,1L50,81.62A6.43,6.43,0,0,1,46.78,82.48Z" fill="#ab6105"/><path d="M46.78,15.29a5.58,5.58,0,0,1,2,.4,5.46,5.46,0,0,1,.64.32L73.61,29.74a4.81,4.81,0,0,1,.6.4,5.09,5.09,0,0,1,1,1,4.6,4.6,0,0,1,.4.58,5.51,5.51,0,0,1,.74,2.74v3.07h0V62.15a5.45,5.45,0,0,1-.42,2.09c-.09.22-.2.43-.31.64A6.18,6.18,0,0,1,74.77,66a5.73,5.73,0,0,1-1.14.87L49.49,80.75a5.4,5.4,0,0,1-5.42,0L19.93,66.87a5.44,5.44,0,0,1-2.73-4.72V37.54h0V34.47a5.38,5.38,0,0,1,1.14-3.32A5.32,5.32,0,0,1,20,29.74L44.09,16a5.37,5.37,0,0,1,2.69-.72m0-2a7.42,7.42,0,0,0-3.68,1L19,28a7.41,7.41,0,0,0-3.77,6.47V62.15a7.44,7.44,0,0,0,3.74,6.45L43.07,82.49a7.45,7.45,0,0,0,7.42,0L74.63,68.6a7.43,7.43,0,0,0,1.55-1.19,7.62,7.62,0,0,0,1.18-1.53,7,7,0,0,0,.42-.87,7.38,7.38,0,0,0,.58-2.86V34.47a7.44,7.44,0,0,0-1-3.74,8.77,8.77,0,0,0-.54-.81,7.84,7.84,0,0,0-1.39-1.37A9,9,0,0,0,74.6,28L50.46,14.27a7.16,7.16,0,0,0-.88-.43,7.43,7.43,0,0,0-2.8-.55Z" fill="#fff"/><polyline points="17.2 30.98 46.78 45.61 76.14 31.95" fill="none" stroke="#fff" stroke-linecap="round" stroke-linejoin="round" stroke-width="2"/><line x1="46.78" y1="45.61" x2="46.78" y2="81.48" fill="none" stroke="#fff" stroke-linecap="round" stroke-linejoin="round" stroke-width="2"/><polyline points="17.31 42.29 46.89 57.91 76.25 43.25" fill="none" stroke="#fff" stroke-linecap="round" stroke-linejoin="round" stroke-width="2"/><polyline points="17.31 53.04 46.89 69.67 76.25 54.01" fill="none" stroke="#fff" stroke-linecap="round" stroke-linejoin="round" stroke-width="2"/><line x1="24.73" y1="57.21" x2="24.73" y2="69.67" fill="none" stroke="#fff" stroke-linecap="round" stroke-linejoin="round" stroke-width="2"/><line x1="56.9" y1="65.01" x2="57.27" y2="76.95" fill="none" stroke="#fff" stroke-linecap="round" stroke-linejoin="round" stroke-width="2"/><line x1="34.68" y1="51.69" x2="34.68" y2="62.14" fill="none" stroke="#fff" stroke-linecap="round" stroke-linejoin="round" stroke-width="2"/><line x1="67.85" y1="47.82" x2="67.85" y2="58.27" fill="none" stroke="#fff" stroke-linecap="round" stroke-linejoin="round" stroke-width="2"/><line x1="59.81" y1="40.38" x2="59.81" y2="50.84" fill="none" stroke="#fff" stroke-linecap="round" stroke-linejoin="round" stroke-width="2"/><line x1="26.63" y1="35.84" x2="26.63" y2="46.3" fill="none" stroke="#fff" stroke-linecap="round" stroke-linejoin="round" stroke-width="2"/><line x1="27.95" y1="24.54" x2="59.75" y2="40.27" fill="none" stroke="#fff" stroke-linecap="round" stroke-linejoin="round" stroke-width="2"/><line x1="26.63" y1="35.84" x2="57.08" y2="19.48" fill="none" stroke="#fff" stroke-linecap="round" stroke-linejoin="round" stroke-width="2"/><line x1="50" y1="34.51" x2="68.7" y2="25.47" fill="none" stroke="#fff" stroke-linecap="round" stroke-linejoin="round" stroke-width="2"/></svg>