<svg id="Layer_1" data-name="Layer 1" xmlns="http://www.w3.org/2000/svg" viewBox="0 0 100 100"><polygon points="21.44 59.49 40.42 78.47 40.42 59.49 21.44 59.49" fill="none"/><polygon points="78.38 40.51 59.4 21.53 59.4 40.51 78.38 40.51" fill="none"/><polygon points="59.4 40.51 59.4 21.53 21.44 21.53 40.42 40.51 59.4 40.51" fill="#2d7dd2" stroke="#11619a" stroke-linecap="round" stroke-linejoin="round" stroke-width="2.08"/><polygon points="40.42 40.51 21.44 21.53 21.44 59.49 40.42 59.49 40.42 40.51" fill="#31c49d" stroke="#11619a" stroke-linecap="round" stroke-linejoin="round" stroke-width="2.08"/><polygon points="40.42 59.49 40.42 78.47 78.38 78.47 59.4 59.49 40.42 59.49" fill="#2d7dd2" stroke="#11619a" stroke-linecap="round" stroke-linejoin="round" stroke-width="2.08"/><polygon points="59.4 40.51 59.4 59.49 78.38 78.47 78.38 40.51 59.4 40.51" fill="#31c49d" stroke="#11619a" stroke-linecap="round" stroke-linejoin="round" stroke-width="2.08"/><rect x="40.42" y="40.51" width="18.98" height="18.98" fill="#31c49d" stroke="#11619a" stroke-linecap="round" stroke-linejoin="round" stroke-width="2.08"/><polygon points="59.4 21.53 78.38 40.51 59.4 40.51 59.4 21.53" fill="#2d7dd2" stroke="#11619a" stroke-linecap="round" stroke-linejoin="round" stroke-width="2.08"/><polygon points="40.42 78.47 21.44 59.49 40.42 59.49 40.42 78.47" fill="#2d7dd2" stroke="#11619a" stroke-linecap="round" stroke-linejoin="round" stroke-width="2.08"/></svg>