<svg id="Layer_1" data-name="Layer 1" xmlns="http://www.w3.org/2000/svg" viewBox="0 0 100 100"><ellipse cx="56.2" cy="80.81" rx="5.44" ry="4" transform="translate(-19 17.3) rotate(-15)" fill="#fff"/><path d="M62,79.27a4.28,4.28,0,0,1-1.14,3.91,7.68,7.68,0,0,1-7.48,2.18,5.06,5.06,0,0,1-1.92-1,3.72,3.72,0,0,1-1.14-4.24,5.11,5.11,0,0,1,1.16-1.83,7.49,7.49,0,0,1,3.57-2,7.39,7.39,0,0,1,4,.12A4.26,4.26,0,0,1,62,79.27Zm-1,.26a3.19,3.19,0,0,0-2.29-2,6.22,6.22,0,0,0-6.12,1.81A3,3,0,0,0,51.74,82a3,3,0,0,0,2,1.93A6.2,6.2,0,0,0,60,82.44,3.21,3.21,0,0,0,61,79.53Z" fill="#f89820"/><path d="M62.91,46.9a15.26,15.26,0,1,0-29.48,7.9C35.09,61,40,62.5,44.58,66.46c1.64,1.43,4,8,4,8l11.35-3s-1.26-6.91-.56-9C61.21,56.76,64.54,53,62.91,46.9Z" fill="#fff"/><path d="M62.19,47.09a16.45,16.45,0,0,0-1.75-4,15.87,15.87,0,0,0-2.85-3.27,14.38,14.38,0,0,0-16.23-1.61A14,14,0,0,0,38,40.86a13.38,13.38,0,0,0-2.44,3.49,14,14,0,0,0-1.35,8.28,12.79,12.79,0,0,0,1.19,4,11.58,11.58,0,0,0,2.55,3.26c2.11,1.92,4.84,3.44,7.24,5.55a5.75,5.75,0,0,1,.52.5c.18.2.28.37.43.56a11.5,11.5,0,0,1,.66,1.07c.4.72.74,1.43,1.06,2.15.64,1.44,1.2,2.87,1.72,4.35l-1.26-.66L59.68,70.5l-.66,1a50.68,50.68,0,0,1-.71-6.41,13.34,13.34,0,0,1,0-1.67,5.81,5.81,0,0,1,.11-.9l.13-.48.14-.38c.35-1,.79-2,1.21-3A38.1,38.1,0,0,0,62.19,53,11.81,11.81,0,0,0,62.58,50,12.76,12.76,0,0,0,62.19,47.09Zm1.44-.38a12.71,12.71,0,0,1,.06,6.63,40.6,40.6,0,0,1-2.3,6c-.41,1-.81,1.92-1.13,2.89l-.12.37-.07.28a6.78,6.78,0,0,0-.07.68,12.38,12.38,0,0,0,0,1.49,51.73,51.73,0,0,0,.79,6.15L61,72l-.8.23L48.83,75.43l-.91.26-.34-.91c-.53-1.39-1.12-2.8-1.75-4.14-.32-.67-.66-1.33-1-2a9.82,9.82,0,0,0-.55-.86c-.1-.11-.2-.26-.28-.35a3.64,3.64,0,0,0-.32-.29c-2.22-1.9-4.9-3.37-7.35-5.55a13.64,13.64,0,0,1-3-4,14.4,14.4,0,0,1-1.36-4.76,15.8,15.8,0,0,1,.17-4.9,16.38,16.38,0,0,1,4.5-8.52,15.12,15.12,0,0,1,3.91-2.87,16.19,16.19,0,0,1,18.09,2,17.27,17.27,0,0,1,3.13,3.64A17.57,17.57,0,0,1,63.63,46.71Z" fill="#f89820"/><rect x="47.99" y="72.8" width="14.31" height="8.14" transform="translate(-18.02 16.89) rotate(-15)" fill="#fff"/><path d="M63.59,79.23,49.48,83.39l-.7.21-.22-.75c-.77-2.6-1.53-5.21-2.24-7.83l-.24-.86.87-.23c4.6-1.24,9.27-2.27,13.88-3.47l.64-.17.17.63C62.35,73.7,63,76.52,63.59,79.23Zm-1-.55c-.8-2.53-1.57-5-2.25-7.42l.8.47C56.57,73,52,74.43,47.41,75.66l.63-1.1c.7,2.63,1.34,5.26,2,7.9l-.93-.53Z" fill="#f89820"/><path d="M50.62,73.21a4.57,4.57,0,0,0,.54-1.82,8.74,8.74,0,0,0-.08-2,35.4,35.4,0,0,0-1-4.13c-.82-2.73-1.91-5.41-3-8.07a6,6,0,0,0-.46-.88c-.15-.26-.38-.46-.43-.45a.93.93,0,0,0-.47.24,1,1,0,0,0-.33.56.77.77,0,0,0,.61.93,5.59,5.59,0,0,0,.91.12,3.44,3.44,0,0,0,.92-.05,4,4,0,0,0,1.65-.82,2.1,2.1,0,0,0,.7-1.42,4.67,4.67,0,0,0-.08-1.86,3,3,0,0,0-.66-1.41h0a.5.5,0,0,0-.21.08.72.72,0,0,0-.15.11l-.08.06h0a.55.55,0,0,0-.09.19,2.71,2.71,0,0,0,.22,1.62,2.41,2.41,0,0,0,.47.69,1.7,1.7,0,0,0,.31.26l.46.35A10.33,10.33,0,0,0,52,56.62a2.07,2.07,0,0,0,.76.22h.16l.24,0c.16,0,.32-.05.47-.09a2.11,2.11,0,0,0,.74-.31.77.77,0,0,0,.32-.53,1.1,1.1,0,0,0,0-.66.65.65,0,0,0-.43-.34c-.39-.15-.72.07-.95.62a9.31,9.31,0,0,0-.12,4,37.16,37.16,0,0,0,.7,4.2,21.87,21.87,0,0,0,1.27,4A8.58,8.58,0,0,0,57.5,71l-.51.78a9.31,9.31,0,0,1-2.77-3.62,22.69,22.69,0,0,1-1.38-4.2,36.84,36.84,0,0,1-.77-4.32,10.46,10.46,0,0,1,.14-4.57,2.47,2.47,0,0,1,.86-1.13,2,2,0,0,1,.76-.28,1.55,1.55,0,0,1,.43,0,3,3,0,0,1,.35.08,1.9,1.9,0,0,1,1.21,1A2.28,2.28,0,0,1,56,56.14a3.18,3.18,0,0,1-.08.33,2,2,0,0,1-.67,1A3.31,3.31,0,0,1,54,58a4.29,4.29,0,0,1-.6.13l-.29.05-.38,0a3.51,3.51,0,0,1-1.31-.35,11.78,11.78,0,0,1-1.91-1.29l-.41-.29a4.93,4.93,0,0,1-.52-.43,4.16,4.16,0,0,1-.75-1.09,4,4,0,0,1-.33-2.59,1.76,1.76,0,0,1,.39-.77,1.54,1.54,0,0,1,.17-.19l.14-.1a2.11,2.11,0,0,1,.29-.2,2,2,0,0,1,.79-.3,1.56,1.56,0,0,1,1,.22A2.49,2.49,0,0,1,51.19,52a6.56,6.56,0,0,1,.38,1.16,6.4,6.4,0,0,1,.06,2.43,3.47,3.47,0,0,1-1.3,2.3,5.17,5.17,0,0,1-2.22,1,5.12,5.12,0,0,1-1.23,0,5.78,5.78,0,0,1-1.22-.21,2.15,2.15,0,0,1-1.19-.91,2,2,0,0,1-.23-1.5A2.2,2.2,0,0,1,45,55.12a2.39,2.39,0,0,1,.62-.36,1.4,1.4,0,0,1,.9-.08,2,2,0,0,1,1.11,1,7.22,7.22,0,0,1,.51,1c1,2.72,2.1,5.4,2.91,8.21a33.67,33.67,0,0,1,1,4.28,6.79,6.79,0,0,1-.67,4.55Z" fill="#f89820"/><path d="M25.84,54.94a9.52,9.52,0,0,1-3.11,2,14.74,14.74,0,0,1-3.45.67q-1.74.31-3.48.57c-1.17.14-2.33.32-3.51.44a.11.11,0,0,1-.13-.11.11.11,0,0,1,.07-.12c1.08-.48,2.17-.91,3.26-1.37s2.19-.85,3.3-1.25a14.82,14.82,0,0,1,3.32-1.14,9.54,9.54,0,0,1,3.67.13.14.14,0,0,1,.1.17A.21.21,0,0,1,25.84,54.94Z" fill="#f89820"/><path d="M65.05,44.19a9.23,9.23,0,0,1,3.11-1.94,14.26,14.26,0,0,1,3.45-.68c1.15-.21,2.31-.4,3.48-.56s2.33-.33,3.51-.45a.12.12,0,0,1,.13.11.11.11,0,0,1-.07.12c-1.08.48-2.18.91-3.26,1.37s-2.2.85-3.3,1.25a14.73,14.73,0,0,1-3.33,1.14,9.49,9.49,0,0,1-3.66-.13.13.13,0,0,1-.1-.17Z" fill="#f89820"/><path d="M42.8,31.27a9.43,9.43,0,0,1-1.94-3.11,14.45,14.45,0,0,1-.68-3.45c-.21-1.16-.4-2.32-.56-3.48s-.33-2.34-.45-3.52a.12.12,0,0,1,.11-.13.14.14,0,0,1,.12.07c.49,1.08.91,2.18,1.37,3.27s.85,2.19,1.25,3.29a14.9,14.9,0,0,1,1.14,3.33A9.49,9.49,0,0,1,43,31.2a.13.13,0,0,1-.17.1Z" fill="#f89820"/><path d="M29.4,40.08a9.5,9.5,0,0,1-3.57-.83,14.49,14.49,0,0,1-2.92-2c-1-.67-1.92-1.35-2.86-2.06s-1.88-1.42-2.8-2.17a.12.12,0,0,1,.12-.2c1.11.42,2.18.89,3.28,1.34s2.15.94,3.21,1.44A15.19,15.19,0,0,1,27,37.19a9.49,9.49,0,0,1,2.5,2.68.13.13,0,0,1-.05.19Z" fill="#f89820"/><path d="M58.84,32a9.4,9.4,0,0,1,.82-3.58,15.22,15.22,0,0,1,2-2.92c.67-1,1.36-1.91,2.06-2.85s1.42-1.89,2.17-2.8a.12.12,0,0,1,.21.12c-.42,1.1-.9,2.18-1.34,3.27s-.95,2.16-1.45,3.22a15.16,15.16,0,0,1-1.54,3.16A9.67,9.67,0,0,1,59,32.14a.15.15,0,0,1-.19,0A.17.17,0,0,1,58.84,32Z" fill="#f89820"/><path d="M64.91,43.49H55.14V36.14h9.77V26h8V36.14h9.82v7.35H73V53.58h-8Z" fill="#0d4973" stroke="#fff" stroke-linecap="round" stroke-linejoin="round" stroke-width="0.65"/></svg>