<svg id="Layer_1" data-name="Layer 1" xmlns="http://www.w3.org/2000/svg" viewBox="0 0 100 100"><path id="rect5005" d="M51.32,82.62l7.89-5.69c.78-.56,1.41-.46,1.41.23v8a3.35,3.35,0,0,1-1.41,2.26L51.32,93.1c-.78.56-1.41.46-1.41-.23v-8a3.37,3.37,0,0,1,1.41-2.27Z" fill="#f89820"/><path id="rect5765" d="M51.74,69.6l7.58-5.47c.87-.62,1.57-.45,1.57.39V72a3.8,3.8,0,0,1-1.57,2.64l-7.58,5.47c-.86.62-1.56.45-1.56-.39V72.24a3.77,3.77,0,0,1,1.56-2.64Z" fill="#fbc179"/><path id="rect5767" d="M51.09,57.17,60,50.77c.51-.37.92.35.92,1.61v5.94A4.2,4.2,0,0,1,60,61.25l-8.88,6.4c-.5.37-.91-.35-.91-1.6V60.1a4.17,4.17,0,0,1,.91-2.93Z" fill="#fbc179"/><path id="rect5769" d="M63.84,47.91l8-5.7c.78-.56,1.41-.14,1.41.95v6.56a4.05,4.05,0,0,1-1.41,3l-8,5.7c-.79.56-1.42.13-1.42-1V50.88a4,4,0,0,1,1.42-3Z" fill="#f89820"/><path id="rect5771" d="M63.53,60.94l8.57-6.13c.62-.44,1.12.25,1.12,1.54v5.8a4.35,4.35,0,0,1-1.12,3.14l-8.57,6.13c-.61.44-1.11-.25-1.11-1.55V64.08a4.38,4.38,0,0,1,1.11-3.14Z" fill="#fbc179"/><path id="rect5773" d="M63.72,73.48,71.38,68c.86-.62,1.57,0,1.57,1.41v5.41a5,5,0,0,1-1.57,3.66L63.72,84c-.87.62-1.57,0-1.57-1.41V77.13a4.94,4.94,0,0,1,1.57-3.65Z" fill="#fbc179"/><path id="rect5775" d="M75.8,64.37l8-5.69c.79-.56,1.42-.14,1.42,1v6.55a4,4,0,0,1-1.42,3l-8,5.69c-.78.56-1.41.14-1.41-.95V67.35a4.08,4.08,0,0,1,1.41-3Z" fill="#fbc179"/><path id="rect5777" d="M75.83,52.39l8.26-5.91c.7-.5,1.27,0,1.27,1.1v6.47A4,4,0,0,1,84.09,57l-8.26,5.91c-.7.5-1.27,0-1.27-1.1V55.3a4,4,0,0,1,1.27-2.91Z" fill="#fbc179"/><path id="rect5779" d="M75.83,39.45l8.26-5.91c.7-.5,1.27-.33,1.27.37v7.92A3.13,3.13,0,0,1,84.09,44l-8.26,5.91c-.7.5-1.27.33-1.27-.38V41.64a3.13,3.13,0,0,1,1.27-2.19Z" fill="#fbc179"/><path id="rect8055" d="M38.58,77.17l8,5.37a4.2,4.2,0,0,1,1.35,3.14v6c0,1.23-.61,1.82-1.35,1.31l-8-5.37a4.13,4.13,0,0,1-1.36-3.13v-6c0-1.23.61-1.82,1.36-1.32Z" fill="#f89820"/><path id="rect8815" d="M38.76,64.19l8,5.37a3.07,3.07,0,0,1,1.35,2.08v8.15c0,.65-.61.76-1.35.26l-8-5.38A3,3,0,0,1,37.4,72.6V64.45c0-.65.61-.76,1.36-.26Z" fill="#fbc179"/><path id="rect8817" d="M38.76,51.79l8,5.37a3.34,3.34,0,0,1,1.35,2.43V67c0,.84-.61,1.11-1.35.61l-8-5.37a3.32,3.32,0,0,1-1.36-2.43V52.4c0-.84.61-1.11,1.36-.6Z" fill="#fbc179"/><path id="rect8819" d="M26.52,69.06l8,5.37a3.74,3.74,0,0,1,1.36,2.83V83.9c0,1.06-.61,1.51-1.36,1l-8-5.37a3.74,3.74,0,0,1-1.35-2.83V70.07c0-1.06.6-1.51,1.35-1Z" fill="#fbc179"/><path id="rect8821" d="M26.52,56.37l8,5.37a3.92,3.92,0,0,1,1.36,3v6.36c0,1.14-.61,1.66-1.36,1.15l-8-5.37a3.91,3.91,0,0,1-1.35-3V57.52c0-1.14.6-1.65,1.35-1.15Z" fill="#f89820"/><path id="rect8823" d="M26.61,44.15l8,5.37A3.43,3.43,0,0,1,36,52.08v7.18c0,.91-.6,1.24-1.35.74l-8-5.37a3.46,3.46,0,0,1-1.36-2.57V44.89c0-.92.61-1.25,1.36-.74Z" fill="#fbc179"/><path id="rect8825" d="M14.19,60.83l8,5.37a3.24,3.24,0,0,1,1.36,2.32v7.67c0,.78-.61,1-1.36.5l-8-5.38A3.19,3.19,0,0,1,12.84,69V61.33c0-.78.61-1,1.35-.5Z" fill="#fbc179"/><path id="rect8827" d="M14.37,48.67l8,5.37a3.14,3.14,0,0,1,1.36,2.26v7.78c0,.74-.61.94-1.36.44l-8-5.37A3.17,3.17,0,0,1,13,56.89V49.1c0-.74.61-.94,1.35-.44Z" fill="#fbc179"/><path id="rect8829" d="M14.37,36.15l8,5.37a3,3,0,0,1,1.36,2.11v8.09c0,.66-.61.78-1.36.28l-8-5.37A3,3,0,0,1,13,44.53v-8.1c0-.66.61-.78,1.35-.28Z" fill="#fbc179"/><g id="g11205"><path id="rect10429" d="M25,26.6l8.9,5.66c.44.28.11,1-.75,1.6l-7,4.94c-.85.6-1.9.86-2.34.58L14.9,33.72c-.44-.28-.1-1,.76-1.6l7-4.94c.86-.6,1.91-.86,2.35-.58Z" fill="#fbc179"/><path id="rect11189" d="M37.14,34.62l8.91,5.66c.44.28.1,1-.76,1.6l-7,4.94c-.86.6-1.91.86-2.35.58L27,41.73c-.44-.28-.11-1,.75-1.59l7-4.94c.86-.6,1.91-.86,2.35-.58Z" fill="#fbc179"/><path id="rect11191" d="M49.58,42.52l8.9,5.67c.44.28.11,1-.75,1.59l-7,4.94c-.86.6-1.91.86-2.35.58l-8.91-5.66c-.44-.28-.1-1,.76-1.59l7-4.94c.86-.6,1.91-.86,2.35-.58Z" fill="#fbc179"/><path id="rect11193" d="M37.3,18.09l8.9,5.66c.44.28.1,1-.75,1.6l-7,4.94c-.85.6-1.9.86-2.34.58l-8.91-5.66c-.44-.28-.1-1,.76-1.6l7-4.94c.86-.6,1.91-.86,2.35-.58Z" fill="#fbc179"/><path id="rect11195" d="M49.56,25.89l8.91,5.66c.44.28.1,1-.75,1.59l-7,4.94a2.67,2.67,0,0,1-2.34.59L39.44,33c-.44-.28-.1-1,.75-1.59l7-4.94a2.67,2.67,0,0,1,2.34-.59Z" fill="#fbc179"/><path id="rect11197" d="M62.26,34l8.91,5.67c.44.28.1,1-.75,1.59l-7,4.94c-.85.6-1.9.86-2.34.58l-8.91-5.66c-.44-.28-.1-1,.75-1.6l7-4.93A2.67,2.67,0,0,1,62.26,34Z" fill="#fbc179"/><path id="rect11199" d="M49.21,9.72l8.9,5.66c.44.28.11,1-.75,1.6l-7,4.93c-.86.61-1.91.87-2.35.59l-8.91-5.67c-.44-.28-.1-1,.76-1.59l7-4.94c.86-.6,1.91-.86,2.35-.58Z" fill="#fbc179"/><path id="rect11201" d="M61.83,17.5l8.9,5.67c.44.28.11,1-.75,1.59L63,29.7c-.85.6-1.9.86-2.34.58L51.7,24.62c-.44-.28-.1-1,.76-1.6l7-4.93c.86-.61,1.91-.87,2.35-.59Z" fill="#fbc179"/><path id="rect11203" d="M74.19,25.58l8.9,5.67c.44.28.1,1-.75,1.59l-7,4.94c-.85.6-1.9.86-2.34.58L64.06,32.7c-.44-.28-.1-1,.75-1.59l7-4.94c.86-.6,1.91-.86,2.35-.58Z" fill="#fbc179"/></g></svg>