<svg id="Layer_1" data-name="Layer 1" xmlns="http://www.w3.org/2000/svg" viewBox="0 0 100 100"><rect x="55.47" y="40.32" width="25.27" height="16.64" fill="#11619a"/><polygon points="75.03 29.23 97.65 48.7 75.19 68.05 75.03 29.23" fill="#11619a"/><rect x="11.17" y="19.29" width="49.98" height="67.35" transform="translate(-12.48 11.16) rotate(-15)" fill="#11619a"/><polygon points="36.06 18.13 51.58 13.97 55.47 28.5 36.06 18.13" fill="#2d7dd2"/><path d="M24.23,64.2l-4.7,1.26L14.84,47.94l4.7-1.26Z" fill="#fff"/><path d="M22.38,45.92l9.16-2.46A9,9,0,0,1,36,43.22c2,.57,3.36,2.23,4.09,5l.53,2.08c1.15,4.31,1.25,5.32.68,7.06s-2.24,2.9-5.34,3.73l-8.9,2.39ZM34.5,57.14c1.21-.32,1.67-.73,1.91-1.61.21-.7.05-1.7-.59-4.09-.56-2.08-1-3-1.44-3.47s-1.19-.58-2.4-.26l-3.81,1,2.53,9.43Z" fill="#fff"/><path d="M47.29,47l7.11-1.9,1,3.86-7.12,1.9L50,57.29l-4.7,1.26L40.64,41,53.06,37.7l1,3.86-7.72,2.07Z" fill="#fff"/></svg>