<svg id="Layer_1" data-name="Layer 1" xmlns="http://www.w3.org/2000/svg" viewBox="0 0 100 100"><circle cx="34.35" cy="34.62" r="8.75" fill="#f89923"/><path d="M34.5,45.68a4.72,4.72,0,0,1,.92,1.39,5.7,5.7,0,0,1,.45,1.38,7.56,7.56,0,0,1-.31,2.78c-.12.92-.27,1.85-.45,2.77s-.37,1.85-.61,2.78h-.3c-.24-.93-.4-1.85-.61-2.78s-.33-1.85-.45-2.77a7.56,7.56,0,0,1-.31-2.78,5.7,5.7,0,0,1,.45-1.38,4.72,4.72,0,0,1,.92-1.39Z" fill="#f89923"/><path d="M34.2,23.56a5,5,0,0,1-.92-1.39,5.77,5.77,0,0,1-.45-1.39A7.51,7.51,0,0,1,33.14,18c.12-.93.28-1.85.45-2.78s.37-1.85.61-2.77h.3c.24.92.4,1.85.61,2.77s.33,1.85.45,2.78a7.51,7.51,0,0,1,.31,2.77,5.77,5.77,0,0,1-.45,1.39,5,5,0,0,1-.92,1.39Z" fill="#f89923"/><path d="M45.41,34.47a4.85,4.85,0,0,1,1.39-.92,5.64,5.64,0,0,1,1.39-.45,7.5,7.5,0,0,1,2.77.3c.93.13,1.85.28,2.78.46s1.85.36,2.77.61v.3c-.92.24-1.85.4-2.77.61s-1.85.32-2.78.45a7.3,7.3,0,0,1-2.77.3,5.25,5.25,0,0,1-1.39-.45,5,5,0,0,1-1.39-.91Z" fill="#f89923"/><path d="M23.29,34.77a5,5,0,0,1-1.39.91,5.25,5.25,0,0,1-1.39.45,7.3,7.3,0,0,1-2.77-.3c-.92-.13-1.85-.28-2.77-.45s-1.85-.37-2.78-.61v-.3c.93-.25,1.85-.41,2.78-.61s1.85-.33,2.77-.46a7.5,7.5,0,0,1,2.77-.3,5.64,5.64,0,0,1,1.39.45,4.85,4.85,0,0,1,1.39.92Z" fill="#f89923"/><path d="M42.28,42.56a5,5,0,0,1,1.63.34,6.1,6.1,0,0,1,1.3.66C46,44.05,46.39,45,47,45.74s1.12,1.5,1.64,2.28,1,1.57,1.54,2.39l-.22.22c-.82-.49-1.59-1-2.39-1.54S46,48,45.24,47.45s-1.69-.93-2.18-1.75a5.8,5.8,0,0,1-.66-1.29,5,5,0,0,1-.34-1.63Z" fill="#f89923"/><path d="M26.42,27.13a4.72,4.72,0,0,1-1.63-.33,6.1,6.1,0,0,1-1.3-.66c-.81-.5-1.18-1.44-1.74-2.18s-1.11-1.5-1.64-2.28-1.05-1.57-1.54-2.39l.22-.22c.82.48,1.59,1,2.39,1.54s1.54,1.07,2.28,1.64,1.69.93,2.18,1.74a5.88,5.88,0,0,1,.66,1.3,5,5,0,0,1,.34,1.63Z" fill="#f89923"/><path d="M26.71,42.62a4.91,4.91,0,0,1-.33,1.63,5.88,5.88,0,0,1-.66,1.3c-.5.82-1.44,1.18-2.18,1.75s-1.5,1.11-2.28,1.64S19.69,50,18.87,50.47l-.22-.21c.48-.83,1-1.6,1.53-2.39s1.08-1.54,1.64-2.29.94-1.68,1.75-2.17a5.5,5.5,0,0,1,1.3-.67,4.91,4.91,0,0,1,1.63-.33Z" fill="#f89923"/><path d="M42.14,26.77a4.85,4.85,0,0,1,.34-1.63,5.66,5.66,0,0,1,.66-1.3c.49-.82,1.43-1.18,2.17-1.75S46.82,21,47.6,20.45,49.16,19.4,50,18.92l.21.21c-.48.83-1,1.59-1.53,2.39S47.6,23.06,47,23.81,46.1,25.49,45.28,26a5.32,5.32,0,0,1-1.3.67,5.11,5.11,0,0,1-1.62.33Z" fill="#f89923"/><rect x="45.73" y="38.08" width="28.27" height="28.27" transform="translate(119.73 104.42) rotate(180)" fill="none" stroke="#11619a" stroke-linecap="round" stroke-linejoin="round" stroke-width="1.55"/><rect x="31.6" y="52.21" width="28.27" height="28.27" transform="translate(91.46 132.68) rotate(180)" fill="none" stroke="#11619a" stroke-linecap="round" stroke-linejoin="round" stroke-width="1.55"/><line x1="74" y1="38.08" x2="59.86" y2="52.21" fill="none" stroke="#11619a" stroke-linecap="round" stroke-linejoin="round" stroke-width="1.55"/><line x1="45.73" y1="38.08" x2="31.6" y2="52.21" fill="none" stroke="#11619a" stroke-linecap="round" stroke-linejoin="round" stroke-width="1.55"/><line x1="74" y1="66.34" x2="59.86" y2="80.48" fill="none" stroke="#11619a" stroke-linecap="round" stroke-linejoin="round" stroke-width="1.55"/><line x1="45.73" y1="66.34" x2="31.6" y2="80.48" fill="none" stroke="#11619a" stroke-linecap="round" stroke-linejoin="round" stroke-width="1.55"/><path d="M70,30H60.18V22.59H70V12.46h8V22.59h9.82V30H78V40H70Z" fill="#0d4973" stroke="#fff" stroke-linecap="round" stroke-linejoin="round" stroke-width="0.65"/><path d="M74,66.34H45.73L31.6,80.48l10.73,6.89a1.06,1.06,0,0,0,.57.17H70.42a1.06,1.06,0,0,0,.75-.31L84.06,74.34a1.06,1.06,0,0,0-.18-1.64Z" fill="#11619a" opacity="0.5"/></svg>