<svg id="Layer_1" data-name="Layer 1" xmlns="http://www.w3.org/2000/svg" viewBox="0 0 100 100"><path d="M70.05,28.6H60.28V21.25h9.77V11.11h8V21.25h9.82V28.6H78.09V38.68h-8Z" fill="#0d4973" stroke="#fff" stroke-linecap="round" stroke-linejoin="round" stroke-width="0.65"/><rect x="15.11" y="28.49" width="40.52" height="40.52" fill="none" stroke="#11619a" stroke-linecap="round" stroke-linejoin="round" stroke-width="2.22"/><line x1="55.63" y1="28.49" x2="75.89" y2="48.75" fill="none" stroke="#11619a" stroke-linecap="round" stroke-linejoin="round" stroke-width="2.22"/><line x1="15.11" y1="69.01" x2="35.37" y2="89.27" fill="none" stroke="#11619a" stroke-linecap="round" stroke-linejoin="round" stroke-width="2.22"/><line x1="55.63" y1="69.01" x2="75.89" y2="89.27" fill="none" stroke="#11619a" stroke-linecap="round" stroke-linejoin="round" stroke-width="2.22"/><rect x="38.55" y="57.17" width="28.49" height="28.49" fill="#97897b" stroke="#71675c" stroke-linejoin="round" stroke-width="1.05"/><polygon points="24.51 43.14 24.51 71.63 38.34 85.45 38.34 57.38 24.51 43.14" fill="#97897b" stroke="#71675c" stroke-linejoin="round" stroke-width="1.05"/><polygon points="66.61 57.17 38.34 57.17 24.51 43.14 51.38 43.14 66.61 57.17" fill="#97897b" stroke="#71675c" stroke-linejoin="round" stroke-width="1.05"/><rect x="35.37" y="48.75" width="40.52" height="40.52" fill="none" stroke="#11619a" stroke-linecap="round" stroke-linejoin="round" stroke-width="2.22"/><line x1="15.11" y1="28.49" x2="35.37" y2="48.75" fill="none" stroke="#11619a" stroke-linecap="round" stroke-linejoin="round" stroke-width="2.22"/></svg>