<svg id="Layer_1" data-name="Layer 1" xmlns="http://www.w3.org/2000/svg" viewBox="0 0 100 100"><circle cx="37.64" cy="40.29" r="8.75" fill="#f89923"/><path d="M37.79,51.35a4.72,4.72,0,0,1,.92,1.39,5.7,5.7,0,0,1,.45,1.38,7.55,7.55,0,0,1-.3,2.78c-.13.92-.28,1.85-.46,2.77s-.36,1.85-.61,2.78h-.3c-.24-.93-.4-1.85-.61-2.78s-.32-1.85-.45-2.77a7.35,7.35,0,0,1-.3-2.78,5.7,5.7,0,0,1,.45-1.38,4.88,4.88,0,0,1,.91-1.39Z" fill="#f89923"/><path d="M37.49,29.23a5,5,0,0,1-.91-1.39,5.64,5.64,0,0,1-.45-1.39,7.3,7.3,0,0,1,.3-2.77c.13-.93.28-1.85.45-2.78s.37-1.85.61-2.77h.3c.25.92.41,1.85.61,2.77s.33,1.85.46,2.78a7.5,7.5,0,0,1,.3,2.77,5.64,5.64,0,0,1-.45,1.39,4.85,4.85,0,0,1-.92,1.39Z" fill="#f89923"/><path d="M48.7,40.14a5,5,0,0,1,1.39-.92,5.77,5.77,0,0,1,1.39-.45,7.3,7.3,0,0,1,2.77.31c.93.12,1.85.27,2.78.45s1.85.36,2.77.61v.3c-.92.24-1.85.4-2.77.61s-1.85.33-2.78.45a7.3,7.3,0,0,1-2.77.3,5.74,5.74,0,0,1-1.39-.44,5.48,5.48,0,0,1-1.39-.92Z" fill="#f89923"/><path d="M26.58,40.44a5.27,5.27,0,0,1-1.38.92,5.88,5.88,0,0,1-1.39.44A7.35,7.35,0,0,1,21,41.5c-.92-.12-1.85-.28-2.77-.45s-1.85-.37-2.78-.61v-.3c.93-.25,1.85-.41,2.78-.61s1.85-.33,2.77-.45a7.36,7.36,0,0,1,2.78-.31,5.92,5.92,0,0,1,1.39.45,4.81,4.81,0,0,1,1.38.92Z" fill="#f89923"/><path d="M45.57,48.23a4.9,4.9,0,0,1,1.63.34,5.88,5.88,0,0,1,1.3.66c.81.49,1.18,1.43,1.75,2.18s1.11,1.5,1.64,2.28,1,1.57,1.53,2.39l-.21.22c-.83-.49-1.6-1-2.4-1.54s-1.54-1.07-2.28-1.64-1.68-.93-2.18-1.74a6.1,6.1,0,0,1-.66-1.3,5,5,0,0,1-.33-1.63Z" fill="#f89923"/><path d="M29.71,32.81a4.84,4.84,0,0,1-1.62-.34,5.66,5.66,0,0,1-1.3-.66C26,31.32,25.6,30.38,25,29.63s-1.11-1.5-1.64-2.28-1-1.57-1.53-2.39l.21-.22c.83.49,1.59,1,2.39,1.54s1.54,1.07,2.29,1.64,1.68.93,2.17,1.74A6.63,6.63,0,0,1,29.6,31a5.23,5.23,0,0,1,.33,1.63Z" fill="#f89923"/><path d="M30,48.29a4.85,4.85,0,0,1-.34,1.63,5.66,5.66,0,0,1-.66,1.3c-.49.82-1.43,1.18-2.18,1.75s-1.5,1.11-2.28,1.64-1.57,1-2.39,1.53l-.22-.21c.49-.83,1-1.59,1.54-2.39s1.07-1.54,1.64-2.29.93-1.68,1.74-2.17a5.7,5.7,0,0,1,1.3-.67,5.23,5.23,0,0,1,1.63-.33Z" fill="#f89923"/><path d="M45.43,32.44a4.9,4.9,0,0,1,.34-1.63,5.88,5.88,0,0,1,.66-1.3c.49-.82,1.43-1.18,2.18-1.75s1.5-1.11,2.28-1.64,1.57-1.05,2.39-1.53l.22.21c-.49.83-1,1.6-1.54,2.39s-1.07,1.54-1.64,2.29-.93,1.68-1.74,2.17a5.7,5.7,0,0,1-1.3.67,5,5,0,0,1-1.63.33Z" fill="#f89923"/><path d="M71.6,38H59.8V29.13H71.6V16.89h9.7V29.13H93.16V38H81.3V50.19H71.6Z" fill="#0d4973" stroke="#fff" stroke-linecap="round" stroke-linejoin="round" stroke-width="0.79"/><path d="M44.91,37.26V58.73H66.38A21.47,21.47,0,0,0,44.91,37.26Z" fill="#2d7dd2" fill-opacity="0.7" stroke="#0d4973" stroke-miterlimit="10" stroke-width="2.6"/><path d="M44.91,80.21V58.73H23.43A21.47,21.47,0,0,0,44.91,80.21Z" fill="#2d7dd2" fill-opacity="0.7" stroke="#0d4973" stroke-miterlimit="10" stroke-width="2.6"/><circle cx="44.59" cy="59.05" r="21.79" fill="none" stroke="#0d4973" stroke-linecap="round" stroke-linejoin="round" stroke-width="3.47"/></svg>