<svg id="Layer_1" data-name="Layer 1" xmlns="http://www.w3.org/2000/svg" viewBox="0 0 100 100"><path d="M20.05,26.37l1.41-1.29,53.37-5.93,3.38,2.79V76.83l-1,1.1L21.32,85.49l-1.27-.95S20.47,25.9,20.05,26.37Z" fill="#2d7dd2"/><path d="M68,39.11,29.88,43.65A1.61,1.61,0,0,1,28,42V24.42l42.21-4.7V36.66A2.56,2.56,0,0,1,68,39.11Z" fill="#11619a"/><path d="M67.63,39l-21.82,2.6a1.74,1.74,0,0,1-2-1.75V22.32l25.82-2.87V36.78A2.29,2.29,0,0,1,67.63,39Z" fill="#999"/><path d="M70.24,77.89,28,83.59V50.69a2.31,2.31,0,0,1,2-2.23l38.21-4.63a1.73,1.73,0,0,1,2,1.72Z" fill="#f2f2f2"/><path d="M65.76,37.85l-6.08.72a.86.86,0,0,1-1-.86V25.56a1.15,1.15,0,0,1,1-1.1l6.08-.68a.86.86,0,0,1,1,.87v12.1A1.13,1.13,0,0,1,65.76,37.85Z" fill="#0d4973"/><polygon points="66.76 22.09 62.29 22.59 62.29 20.71 66.76 20.21 66.76 22.09" fill="#0d4973"/><polygon points="51.15 23.84 46.68 24.34 46.68 22.45 51.15 21.95 51.15 23.84" fill="#0d4973"/></svg>