<svg id="Layer_1" data-name="Layer 1" xmlns="http://www.w3.org/2000/svg" viewBox="0 0 100 100"><circle cx="32.93" cy="34.45" r="8.75" fill="#f89923"/><path d="M33.08,45.51A4.72,4.72,0,0,1,34,46.9a5.7,5.7,0,0,1,.45,1.38,7.56,7.56,0,0,1-.31,2.78c-.12.92-.27,1.85-.45,2.77s-.37,1.85-.61,2.78h-.3c-.24-.93-.4-1.85-.61-2.78s-.33-1.85-.45-2.77a7.56,7.56,0,0,1-.31-2.78,5.7,5.7,0,0,1,.45-1.38,4.72,4.72,0,0,1,.92-1.39Z" fill="#f89923"/><path d="M32.78,23.39A4.85,4.85,0,0,1,31.86,22a5.64,5.64,0,0,1-.45-1.39,7.51,7.51,0,0,1,.31-2.77c.12-.93.27-1.85.45-2.78s.37-1.85.61-2.77h.3c.24.92.4,1.85.61,2.77s.33,1.85.45,2.78a7.51,7.51,0,0,1,.31,2.77A5.64,5.64,0,0,1,34,22a4.85,4.85,0,0,1-.92,1.39Z" fill="#f89923"/><path d="M44,34.3a4.85,4.85,0,0,1,1.39-.92,5.64,5.64,0,0,1,1.39-.45,7.3,7.3,0,0,1,2.77.31c.93.12,1.85.27,2.78.45s1.84.36,2.77.61v.3c-.93.24-1.85.4-2.77.61s-1.85.33-2.78.45a7.51,7.51,0,0,1-2.77.31,6.09,6.09,0,0,1-1.39-.45A5.07,5.07,0,0,1,44,34.6Z" fill="#f89923"/><path d="M21.87,34.6a5.07,5.07,0,0,1-1.39.92,6.09,6.09,0,0,1-1.39.45,7.51,7.51,0,0,1-2.77-.31c-.93-.12-1.85-.28-2.78-.45s-1.85-.37-2.77-.61v-.3c.92-.25,1.85-.41,2.77-.61s1.85-.33,2.78-.45a7.3,7.3,0,0,1,2.77-.31,5.64,5.64,0,0,1,1.39.45,4.85,4.85,0,0,1,1.39.92Z" fill="#f89923"/><path d="M40.86,42.39a5,5,0,0,1,1.63.34,6.1,6.1,0,0,1,1.3.66c.81.49,1.18,1.43,1.74,2.18s1.11,1.5,1.64,2.28,1,1.57,1.54,2.39l-.22.22c-.82-.49-1.59-1-2.39-1.54s-1.54-1.07-2.28-1.64-1.69-.93-2.18-1.74a6.1,6.1,0,0,1-.66-1.3,5,5,0,0,1-.34-1.63Z" fill="#f89923"/><path d="M25,27a5,5,0,0,1-1.63-.34,6.1,6.1,0,0,1-1.3-.66c-.81-.49-1.18-1.43-1.74-2.18s-1.11-1.5-1.64-2.28-1.05-1.57-1.54-2.39l.22-.22c.82.49,1.59,1,2.39,1.54S21.3,21.51,22,22.08s1.69.93,2.18,1.74a6.1,6.1,0,0,1,.66,1.3,5,5,0,0,1,.34,1.63Z" fill="#f89923"/><path d="M25.29,42.45A4.86,4.86,0,0,1,25,44.08a5.66,5.66,0,0,1-.66,1.3c-.5.82-1.44,1.18-2.18,1.75s-1.51,1.11-2.28,1.64-1.57,1-2.4,1.53l-.21-.21c.48-.83,1-1.59,1.53-2.39s1.08-1.54,1.64-2.29.94-1.68,1.75-2.17a5.5,5.5,0,0,1,1.3-.67,5.17,5.17,0,0,1,1.63-.33Z" fill="#f89923"/><path d="M40.72,26.6A5.17,5.17,0,0,1,41.05,25a6.36,6.36,0,0,1,.67-1.3c.49-.81,1.43-1.18,2.17-1.75s1.51-1.11,2.29-1.64,1.56-1.05,2.39-1.53l.21.21c-.48.83-1,1.6-1.53,2.39s-1.08,1.55-1.64,2.29-.93,1.68-1.75,2.18a5.66,5.66,0,0,1-1.3.66,4.85,4.85,0,0,1-1.62.33Z" fill="#f89923"/><path d="M28,46.71l20.55-14.3a1.36,1.36,0,0,1,1.52,0L71.15,45.87A1.38,1.38,0,0,1,71.78,47V68.14a1.36,1.36,0,0,1-.57,1.11L50.08,84.56a1.38,1.38,0,0,1-1.59,0L28,70.18a1.37,1.37,0,0,1-.58-1.12V47.84A1.4,1.4,0,0,1,28,46.71Z" fill="#2d7dd2"/><path id="rect5005" d="M50.92,77l4.71-3.39c.46-.34.84-.28.84.14v4.76a2,2,0,0,1-.84,1.35l-4.71,3.4c-.47.33-.84.27-.84-.14V78.4A2,2,0,0,1,50.92,77Z" fill="#11619a"/><path id="rect5765" d="M51.17,69.27,55.7,66c.51-.37.93-.27.93.23v4.45a2.28,2.28,0,0,1-.93,1.57l-4.53,3.27c-.52.37-.93.27-.93-.23V70.85a2.23,2.23,0,0,1,.93-1.58Z" fill="#11619a"/><path id="rect5767" d="M50.78,61.85,56.08,58c.3-.22.55.21.55,1v3.55a2.54,2.54,0,0,1-.55,1.75l-5.3,3.82c-.3.22-.54-.21-.54-1V63.6a2.54,2.54,0,0,1,.54-1.75Z" fill="#11619a"/><path id="rect5769" d="M58.39,56.32l4.75-3.4c.47-.33.85-.08.85.57V57.4a2.41,2.41,0,0,1-.85,1.78l-4.75,3.4c-.47.33-.85.08-.85-.57V58.1a2.43,2.43,0,0,1,.85-1.78Z" fill="#11619a"/><path id="rect5771" d="M58.21,64.1l5.11-3.66c.37-.26.67.15.67.93v3.46a2.58,2.58,0,0,1-.67,1.87l-5.11,3.66c-.37.26-.67-.15-.67-.92V66a2.59,2.59,0,0,1,.67-1.88Z" fill="#11619a"/><path id="rect5773" d="M58.32,71.58l4.57-3.26c.52-.37.94,0,.94.84v3.23a3,3,0,0,1-.94,2.18l-4.57,3.27c-.52.37-.94,0-.94-.84V73.77a3,3,0,0,1,.94-2.19Z" fill="#11619a"/><path id="rect5775" d="M65.53,66.15l4.75-3.4c.47-.33.85-.08.85.57v3.91A2.43,2.43,0,0,1,70.28,69l-4.75,3.4c-.46.33-.84.08-.84-.57V67.93a2.46,2.46,0,0,1,.84-1.78Z" fill="#11619a"/><path id="rect5777" d="M65.55,59l4.93-3.53c.42-.3.76,0,.76.66V60a2.36,2.36,0,0,1-.76,1.74l-4.93,3.53c-.42.29-.76,0-.76-.66V60.74A2.36,2.36,0,0,1,65.55,59Z" fill="#11619a"/><path id="rect5779" d="M65.55,51.27l4.93-3.52c.42-.3.76-.2.76.22V52.7a1.86,1.86,0,0,1-.76,1.3l-4.93,3.53c-.42.3-.76.2-.76-.22V52.58a1.88,1.88,0,0,1,.76-1.31Z" fill="#11619a"/><path id="rect8055" d="M43.31,73.79,48.09,77a2.5,2.5,0,0,1,.81,1.87v3.6c0,.73-.37,1.08-.81.78l-4.78-3.2a2.5,2.5,0,0,1-.81-1.87v-3.6c0-.74.37-1.09.81-.79Z" fill="#11619a"/><path id="rect8815" d="M43.42,66l4.77,3.21A1.78,1.78,0,0,1,49,70.49v4.87c0,.38-.36.45-.81.15L43.42,72.3a1.78,1.78,0,0,1-.81-1.24V66.2c0-.39.36-.46.81-.16Z" fill="#11619a"/><path id="rect8817" d="M43.42,58.64l4.77,3.21A2,2,0,0,1,49,63.3v4.45c0,.49-.36.66-.81.36L43.42,64.9a2,2,0,0,1-.81-1.45V59c0-.49.36-.66.81-.36Z" fill="#11619a"/><path id="rect8819" d="M36.12,69l4.77,3.2a2.23,2.23,0,0,1,.81,1.69v4c0,.63-.36.9-.81.6L36.12,75.2a2.22,2.22,0,0,1-.81-1.69v-4c0-.63.36-.9.81-.6Z" fill="#11619a"/><path id="rect8821" d="M36.12,61.38l4.77,3.2a2.34,2.34,0,0,1,.81,1.77v3.8c0,.68-.36,1-.81.69l-4.77-3.21a2.33,2.33,0,0,1-.81-1.77v-3.8c0-.68.36-1,.81-.69Z" fill="#11619a"/><path id="rect8823" d="M36.17,54.08l4.77,3.2a2.05,2.05,0,0,1,.81,1.53V63.1c0,.54-.36.74-.81.44l-4.77-3.21a2,2,0,0,1-.81-1.53V54.52c0-.54.36-.74.81-.44Z" fill="#11619a"/><path id="rect8825" d="M28.76,64l4.77,3.2a1.91,1.91,0,0,1,.81,1.39V73.2c0,.47-.36.6-.81.3l-4.77-3.21A1.9,1.9,0,0,1,28,68.91V64.34c0-.47.36-.6.81-.3Z" fill="#11619a"/><path id="rect8827" d="M28.87,56.78,33.64,60a1.89,1.89,0,0,1,.81,1.35V66c0,.44-.36.56-.81.26L28.87,63a1.87,1.87,0,0,1-.81-1.35V57c0-.45.36-.56.81-.26Z" fill="#11619a"/><path id="rect8829" d="M28.87,49.31l4.77,3.2a1.8,1.8,0,0,1,.81,1.26V58.6c0,.39-.36.47-.81.17l-4.77-3.21a1.8,1.8,0,0,1-.81-1.26V49.47c0-.39.36-.46.81-.17Z" fill="#11619a"/><g id="g11205"><path id="rect10429" d="M35.22,43.61,40.54,47c.26.16.06.59-.45.95l-4.19,3c-.51.35-1.14.51-1.4.34l-5.32-3.38c-.26-.16-.06-.59.45-1L33.82,44a1.62,1.62,0,0,1,1.41-.35Z" fill="#11619a"/><path id="rect11189" d="M42.45,48.39l5.32,3.38c.26.17.06.6-.45.95l-4.19,3c-.51.36-1.14.52-1.4.35l-5.32-3.38c-.26-.17-.06-.59.45-1l4.19-2.95c.51-.36,1.14-.52,1.4-.35Z" fill="#11619a"/><path id="rect11191" d="M49.88,53.11l5.31,3.38c.27.17.07.59-.44.95l-4.2,3c-.51.36-1.14.52-1.4.35l-5.31-3.38c-.27-.17-.07-.6.45-1l4.19-2.95a1.6,1.6,0,0,1,1.4-.35Z" fill="#11619a"/><path id="rect11193" d="M42.55,38.53l5.31,3.38c.27.16.07.59-.45,1l-4.19,3c-.51.36-1.14.51-1.4.34l-5.31-3.38c-.27-.16-.07-.59.44-1l4.2-3c.51-.35,1.14-.51,1.4-.34Z" fill="#11619a"/><path id="rect11195" d="M49.87,43.18l5.32,3.38c.26.17.06.59-.45.95l-4.2,3a1.59,1.59,0,0,1-1.4.35l-5.31-3.38c-.26-.17-.06-.6.45-1l4.19-2.94c.51-.36,1.14-.52,1.4-.35Z" fill="#11619a"/><path id="rect11197" d="M57.45,48l5.32,3.38c.26.17.06.59-.45.95l-4.19,3c-.52.36-1.14.52-1.4.35l-5.32-3.38c-.26-.17-.06-.6.45-1l4.19-2.95c.51-.36,1.14-.52,1.4-.35Z" fill="#11619a"/><path id="rect11199" d="M49.66,33.53,55,36.91c.27.17.07.59-.44,1l-4.2,3a1.6,1.6,0,0,1-1.4.35l-5.31-3.38c-.27-.17-.07-.6.45-1l4.19-2.94c.51-.36,1.14-.52,1.4-.35Z" fill="#11619a"/><path id="rect11201" d="M57.19,38.18l5.32,3.38c.26.16.06.59-.45.95l-4.2,3c-.51.35-1.13.51-1.4.34l-5.31-3.38c-.27-.16-.06-.59.45-1l4.19-2.95c.51-.36,1.14-.51,1.4-.34Z" fill="#11619a"/><path id="rect11203" d="M64.57,43l5.31,3.38c.27.17.06.59-.45.95l-4.19,3a1.6,1.6,0,0,1-1.4.35l-5.32-3.38c-.26-.17-.06-.6.45-1l4.2-2.94c.51-.36,1.14-.52,1.4-.35Z" fill="#11619a"/></g><path d="M64.86,42.16H55.09V34.81h9.77V24.67h8V34.81h9.83v7.35H72.89V52.25h-8Z" fill="#0d4973" stroke="#fff" stroke-linecap="round" stroke-linejoin="round" stroke-width="0.65"/></svg>