<svg id="Layer_1" data-name="Layer 1" xmlns="http://www.w3.org/2000/svg" viewBox="0 0 100 100"><rect x="14.94" y="27.29" width="67.49" height="60.66" fill="#fff"/><path d="M81.93,27.79V87.45H15.44V27.79H81.93m1-1H14.44V88.45H82.93V26.79Z" fill="gray"/><polygon points="13.04 85.52 13.04 24.87 80.52 24.87 80.52 74.56 61.22 85.52 13.04 85.52" fill="#fff"/><path d="M80,25.36V74.27L61.08,85H13.54V25.36H80m1-1H12.55V86h48.8l.22-.13L80.51,75.13l.5-.28V24.37Z" fill="gray"/><rect x="8.29" y="12.25" width="76.98" height="15.54" rx="2" fill="#f89820"/><rect x="21.84" y="8.2" width="3.75" height="11.03" rx="1.24" fill="gray"/><rect x="67.97" y="8.2" width="3.75" height="11.03" rx="1.24" fill="gray"/><rect x="16.52" y="31.53" width="10.24" height="9.21" fill="#fff" stroke="gray" stroke-miterlimit="10" stroke-width="0.5"/><path d="M26.68,31.61v9H16.59v-9H26.68m.15-.15H16.44v9.35H26.83V31.46Z" fill="gray" stroke="gray" stroke-miterlimit="10" stroke-width="0.5"/><rect x="29.09" y="31.53" width="10.24" height="9.21" fill="#fff" stroke="gray" stroke-miterlimit="10" stroke-width="0.5"/><path d="M39.25,31.61v9H29.16v-9H39.25m.16-.15H29v9.35h10.4V31.46Z" fill="gray" stroke="gray" stroke-miterlimit="10" stroke-width="0.5"/><rect x="41.66" y="31.53" width="10.24" height="9.21" fill="#fff" stroke="gray" stroke-miterlimit="10" stroke-width="0.5"/><path d="M51.83,31.61v9H41.73v-9h10.1m.15-.15H41.58v9.35H52V31.46Z" fill="gray" stroke="gray" stroke-miterlimit="10" stroke-width="0.5"/><rect x="54.23" y="31.53" width="10.24" height="9.21" fill="#fff" stroke="gray" stroke-miterlimit="10" stroke-width="0.5"/><path d="M64.4,31.61v9H54.31v-9H64.4m.15-.15H54.16v9.35H64.55V31.46Z" fill="gray" stroke="gray" stroke-miterlimit="10" stroke-width="0.5"/><rect x="66.8" y="31.53" width="10.24" height="9.21" fill="#fff" stroke="gray" stroke-miterlimit="10" stroke-width="0.5"/><path d="M77,31.61v9H66.88v-9H77m.15-.15H66.73v9.35H77.12V31.46Z" fill="gray" stroke="gray" stroke-miterlimit="10" stroke-width="0.5"/><rect x="16.52" y="44.03" width="10.24" height="9.21" fill="#fff" stroke="gray" stroke-miterlimit="10" stroke-width="0.5"/><path d="M26.68,44.1v9.06H16.59V44.1H26.68m.15-.15H16.44v9.36H26.83V44Z" fill="gray" stroke="gray" stroke-miterlimit="10" stroke-width="0.5"/><rect x="29.09" y="44.03" width="10.24" height="9.21" fill="#fff" stroke="gray" stroke-miterlimit="10" stroke-width="0.5"/><path d="M39.25,44.1v9.06H29.16V44.1H39.25m.16-.15H29v9.36h10.4V44Z" fill="gray" stroke="gray" stroke-miterlimit="10" stroke-width="0.5"/><rect x="41.66" y="44.03" width="10.24" height="9.21" fill="#fff" stroke="gray" stroke-miterlimit="10" stroke-width="0.5"/><path d="M51.83,44.1v9.06H41.73V44.1h10.1M52,44H41.58v9.36H52V44Z" fill="gray" stroke="gray" stroke-miterlimit="10" stroke-width="0.5"/><rect x="54.23" y="44.03" width="10.24" height="9.21" fill="#fff" stroke="gray" stroke-miterlimit="10" stroke-width="0.5"/><path d="M64.4,44.1v9.06H54.31V44.1H64.4m.15-.15H54.16v9.36H64.55V44Z" fill="gray" stroke="gray" stroke-miterlimit="10" stroke-width="0.5"/><rect x="66.8" y="44.03" width="10.24" height="9.21" fill="#fff" stroke="gray" stroke-miterlimit="10" stroke-width="0.5"/><path d="M77,44.1v9.06H66.88V44.1H77m.15-.15H66.73v9.36H77.12V44Z" fill="gray" stroke="gray" stroke-miterlimit="10" stroke-width="0.5"/><rect x="16.52" y="56.52" width="10.24" height="9.21" fill="#fff" stroke="gray" stroke-miterlimit="10" stroke-width="0.5"/><path d="M26.68,56.59v9.06H16.59V56.59H26.68m.15-.15H16.44V65.8H26.83V56.44Z" fill="gray" stroke="gray" stroke-miterlimit="10" stroke-width="0.5"/><rect x="29.09" y="56.52" width="10.24" height="9.21" fill="#fff" stroke="gray" stroke-miterlimit="10" stroke-width="0.5"/><path d="M39.25,56.59v9.06H29.16V56.59H39.25m.16-.15H29V65.8h10.4V56.44Z" fill="gray" stroke="gray" stroke-miterlimit="10" stroke-width="0.5"/><rect x="41.66" y="56.52" width="10.24" height="9.21" fill="#fff" stroke="gray" stroke-miterlimit="10" stroke-width="0.5"/><path d="M51.83,56.59v9.06H41.73V56.59h10.1m.15-.15H41.58V65.8H52V56.44Z" fill="gray" stroke="gray" stroke-miterlimit="10" stroke-width="0.5"/><rect x="54.23" y="56.52" width="10.24" height="9.21" fill="#fff" stroke="gray" stroke-miterlimit="10" stroke-width="0.5"/><path d="M64.4,56.59v9.06H54.31V56.59H64.4m.15-.15H54.16V65.8H64.55V56.44Z" fill="gray" stroke="gray" stroke-miterlimit="10" stroke-width="0.5"/><rect x="66.8" y="56.52" width="10.24" height="9.21" fill="#fff" stroke="gray" stroke-miterlimit="10" stroke-width="0.5"/><path d="M77,56.59v9.06H66.88V56.59H77m.15-.15H66.73V65.8H77.12V56.44Z" fill="gray" stroke="gray" stroke-miterlimit="10" stroke-width="0.5"/><rect x="16.52" y="69.01" width="10.24" height="9.21" fill="#fff" stroke="gray" stroke-miterlimit="10" stroke-width="0.5"/><path d="M26.68,69.09v9H16.59v-9H26.68m.15-.15H16.44v9.35H26.83V68.94Z" fill="gray" stroke="gray" stroke-miterlimit="10" stroke-width="0.5"/><rect x="29.09" y="69.01" width="10.24" height="9.21" fill="#fff" stroke="gray" stroke-miterlimit="10" stroke-width="0.5"/><path d="M39.25,69.09v9H29.16v-9H39.25m.16-.15H29v9.35h10.4V68.94Z" fill="gray" stroke="gray" stroke-miterlimit="10" stroke-width="0.5"/><rect x="41.66" y="69.01" width="10.24" height="9.21" fill="#fff" stroke="gray" stroke-miterlimit="10" stroke-width="0.5"/><path d="M51.83,69.09v9H41.73v-9h10.1m.15-.15H41.58v9.35H52V68.94Z" fill="gray" stroke="gray" stroke-miterlimit="10" stroke-width="0.5"/><rect x="54.23" y="69.01" width="10.24" height="9.21" fill="#fff" stroke="gray" stroke-miterlimit="10" stroke-width="0.5"/><path d="M64.4,69.09v9H54.31v-9H64.4m.15-.15H54.16v9.35H64.55V68.94Z" fill="gray" stroke="gray" stroke-miterlimit="10" stroke-width="0.5"/><path d="M77,69.09v7.16l-3.76,1.89H66.88v-9H77m.15-.15H66.73v9.35h7.08l3.31-1.73V68.94Z" fill="gray" stroke="gray" stroke-miterlimit="10" stroke-width="0.5"/><rect x="54.31" y="44.1" width="10.09" height="9.05" fill="#f89820"/><path d="M60.74,85.57s-1.39-1.23-2-5.84c-.51-4.14,2.39-8.28,2.39-8.28s.37,3.29,9,4.61c4.58.7,9.82-1.22,9.82-1.22Z" fill="#ccc" stroke="gray" stroke-linejoin="round"/></svg>