<svg id="Layer_1" data-name="Layer 1" xmlns="http://www.w3.org/2000/svg" viewBox="0 0 100 100"><polygon points="25.89 69.34 44.87 88.32 44.87 69.34 25.89 69.34" fill="none"/><polygon points="82.83 50.36 63.85 31.38 63.85 50.36 82.83 50.36" fill="none"/><polygon points="63.85 50.36 63.85 31.38 25.89 31.38 44.87 50.36 63.85 50.36" fill="#2d7dd2" stroke="#11619a" stroke-linecap="round" stroke-linejoin="round" stroke-width="2.08"/><polygon points="44.87 50.36 25.89 31.38 25.89 69.34 44.87 69.34 44.87 50.36" fill="#31c49d" stroke="#11619a" stroke-linecap="round" stroke-linejoin="round" stroke-width="2.08"/><polygon points="44.87 69.34 44.87 88.32 82.83 88.32 63.85 69.34 44.87 69.34" fill="#2d7dd2" stroke="#11619a" stroke-linecap="round" stroke-linejoin="round" stroke-width="2.08"/><polygon points="63.85 50.36 63.85 69.34 82.83 88.32 82.83 50.36 63.85 50.36" fill="#31c49d" stroke="#11619a" stroke-linecap="round" stroke-linejoin="round" stroke-width="2.08"/><rect x="44.87" y="50.36" width="18.98" height="18.98" fill="#31c49d" stroke="#11619a" stroke-linecap="round" stroke-linejoin="round" stroke-width="2.08"/><polygon points="63.85 31.38 82.83 50.36 63.85 50.36 63.85 31.38" fill="#2d7dd2" stroke="#11619a" stroke-linecap="round" stroke-linejoin="round" stroke-width="2.08"/><polygon points="44.87 88.32 25.89 69.34 44.87 69.34 44.87 88.32" fill="#2d7dd2" stroke="#11619a" stroke-linecap="round" stroke-linejoin="round" stroke-width="2.08"/><polygon points="31.35 76.28 29.26 74.11 29.26 30.16 31.35 30.16 31.35 76.28" fill="#fff"/><polygon points="38.27 83.24 36.19 81.24 36.19 30.24 38.27 30.24 38.27 83.24" fill="#fff"/><rect x="47.19" y="30.24" width="2.08" height="59.17" fill="#fff"/><rect x="57.19" y="30.24" width="2.08" height="59.17" fill="#fff"/><polygon points="80.08 89.41 78 89.41 78 43.87 80.08 45.87 80.08 89.41" fill="#fff"/><polygon points="73.92 39.79 24.64 39.79 24.64 37.71 71.92 37.71 73.92 39.79" fill="#fff"/><rect x="24.64" y="53.84" width="59.36" height="2.08" fill="#fff"/><polygon points="84 73.93 28.91 73.93 26.91 71.85 84 71.85 84 73.93" fill="#fff"/></svg>