<svg id="Layer_1" data-name="Layer 1" xmlns="http://www.w3.org/2000/svg" viewBox="0 0 100 100"><path d="M42.49,30.81l3,1.68a.4.4,0,0,1,0,.69l-3,1.68a.79.79,0,0,1-.76,0l-3-1.68a.4.4,0,0,1,0-.69l3-1.68A.79.79,0,0,1,42.49,30.81Zm-.38-1.26-6,3.28h0l6,3.29,6-3.29h0l-6-3.28Z" fill="#fff"/><path d="M26,26.93V38.78h0v1.58a3,3,0,0,0,1.49,2.58l13.18,7.58a3,3,0,0,0,3,0l13.17-7.58a3,3,0,0,0,1.49-2.58V38.78h0V26.93h0V25.25a3,3,0,0,0-1.5-2.58l-13.17-7.5a3,3,0,0,0-2.94,0l-13.18,7.5A3,3,0,0,0,26,25.25v1.68m0,0h0" fill="none" stroke="#fff" stroke-linecap="round" stroke-linejoin="round" stroke-width="1.36"/><polygon points="25.96 38.78 36.73 32.85 25.96 26.93 25.96 38.78" fill="#71675c"/><path d="M56.75,22.67l-13.17-7.5a3,3,0,0,0-1.47-.39V29.89h0l5.38,3,10.76-5.92V25.25A3,3,0,0,0,56.75,22.67Z" fill="#2d7dd2"/><path d="M40.64,15.17l-13.18,7.5A3,3,0,0,0,26,25.25v1.68l10.77,5.92,5.38-3V14.78A2.94,2.94,0,0,0,40.64,15.17Z" fill="#11619a"/><path d="M36.73,32.85,26,38.78v1.58a3,3,0,0,0,1.49,2.58l13.18,7.58a3,3,0,0,0,1.48.39V35.81Z" fill="#97897b"/><path d="M42.11,35.81h0v15.1a3,3,0,0,0,1.48-.39l13.17-7.58a3,3,0,0,0,1.49-2.58V38.78L47.49,32.85Z" fill="#f89820"/><polygon points="58.26 38.78 58.26 26.93 47.49 32.85 58.26 38.78" fill="#fbc179"/><circle cx="42.91" cy="33.04" r="24.52" fill="none" stroke="#814904" stroke-miterlimit="10" stroke-width="4.65"/><circle cx="41.73" cy="31.38" r="24.52" fill="none" stroke="#f89820" stroke-miterlimit="10" stroke-width="4.65"/><path d="M60.49,50.88H72a0,0,0,0,1,0,0V91.54a5.75,5.75,0,0,1-5.75,5.75h0a5.75,5.75,0,0,1-5.75-5.75V50.88a0,0,0,0,1,0,0Z" transform="translate(-28.17 43.05) rotate(-30)" fill="#f89820"/></svg>