<svg id="Layer_1" data-name="Layer 1" xmlns="http://www.w3.org/2000/svg" viewBox="0 0 100 100"><rect x="5.71" y="29.23" width="21.04" height="16.64" fill="#11619a"/><polygon points="21.04 18.14 43.66 37.61 21.2 56.96 21.04 18.14" fill="#11619a"/><rect x="39.55" y="19.94" width="49.98" height="67.35" transform="translate(16.08 -14.88) rotate(15)" fill="#11619a"/><polygon points="81.87 23.4 97.39 27.56 93.5 42.08 81.87 23.4" fill="#2d7dd2"/><path d="M48.6,57.38l-4.71-1.26,4.7-17.52,4.7,1.26Z" fill="#fff"/><path d="M56.13,40.62l9.16,2.46a8.81,8.81,0,0,1,4,2c1.44,1.49,1.8,3.61,1.06,6.34l-.58,2.07c-1.15,4.3-1.57,5.23-2.94,6.44s-3.38,1.41-6.48.58l-8.91-2.39ZM61,56.4A2.14,2.14,0,0,0,63.47,56c.53-.5.9-1.45,1.54-3.84.55-2.07.69-3.11.49-3.72s-.75-1.1-2-1.43l-3.81-1-2.53,9.43Z" fill="#fff"/><path d="M77.14,54.05,84.25,56l-1,3.86L76.1,57.91l-1.71,6.38L69.69,63l4.7-17.52,12.42,3.33-1,3.86-7.72-2.07Z" fill="#fff"/></svg>