<svg id="Layer_1" data-name="Layer 1" xmlns="http://www.w3.org/2000/svg" viewBox="0 0 100 100"><path d="M49.11,66.82V80.37c0,.37,0,.74,0,1.11a1,1,0,0,1-1.36,1L40,81.15,25.18,78.48c-1.68-.3-2.07-.77-2.07-2.46q0-13.86,0-27.71c0-.12,0-.24,0-.37,0-1.34.5-1.72,1.8-1.49l9.68,1.75Q41,49.36,47.48,50.53c1.23.23,1.62.73,1.63,2C49.12,57.28,49.11,62.05,49.11,66.82ZM25.36,62.53c0,3.83,0,7.65,0,11.48,0,2.23-.28,1.85,1.85,2.24,6.28,1.14,12.56,2.26,18.83,3.41.69.12.89-.1.89-.75q0-12.55,0-25.1a.82.82,0,0,0-.78-1c-1-.17-2-.36-3.06-.55l-16.65-3c-1.05-.19-1.08-.15-1.08.93Z" fill="#11619a"/><path d="M77.35,37.82V52c0,1.38-.4,1.73-1.75,1.49L57.86,50.28l-4.73-.85a1.78,1.78,0,0,1-1.75-2V19c0-1.38.48-1.75,1.84-1.5l22.47,4.05c1.22.22,1.66.74,1.66,2Zm-2.18-.45h0V25.15c0-1.13,0-1.14-1.09-1.34l-7-1.26L54.62,20.29c-.87-.16-1-.05-1,.85,0,4.05-.06,8.09-.07,12.14s0,8.24,0,12.37c0,1.23.06,1.28,1.23,1.49L74.05,50.6c1,.18,1.11.1,1.12-.94Z" fill="#11619a"/><path d="M22.79,28.07V13.85c0-1.44.43-1.79,1.86-1.54l22.33,4c1.38.25,1.79.75,1.79,2.16V46.64c0,1.58-.4,1.91-2,1.63q-11.08-2-22.18-4c-1.47-.26-1.82-.71-1.82-2.21Zm2.19.38h0c0,4.1,0,8.19,0,12.29A1,1,0,0,0,26,42q9.75,1.73,19.49,3.49c1,.17,1.07.12,1.07-.88,0-4,.07-8,.08-12.06q0-6.3,0-12.59c0-1-.13-1.11-1.05-1.27L26.12,15.18c-1.06-.19-1.14-.13-1.14,1Z" fill="#11619a"/><path d="M77.34,71.86V86c0,1.44-.42,1.79-1.85,1.54l-22.33-4c-1.4-.25-1.79-.72-1.79-2.15q0-14.2,0-28.43c0-1.25.48-1.62,1.7-1.4l22.47,4c1.42.26,1.8.73,1.8,2.14V71.86ZM53.55,67.55q0,6.2,0,12.37c0,1,.11,1.12,1,1.28l19.34,3.47c1.16.2,1.24.15,1.24-1V59.29c0-1.16-.06-1.21-1.22-1.42L54.76,54.42c-1.1-.2-1.2-.13-1.2,1Q53.54,61.49,53.55,67.55Z" fill="#11619a"/></svg>