<svg id="Layer_1" data-name="Layer 1" xmlns="http://www.w3.org/2000/svg" viewBox="0 0 100 100"><path d="M21.43,29.42l1.42-1.29,53.36-5.94L79.6,25V79.87l-1,1.1L22.7,88.54l-1.27-1S21.86,29,21.43,29.42Z" fill="#2d7dd2"/><path d="M69.4,42.15,31.26,46.69a1.6,1.6,0,0,1-1.85-1.62V27.47l42.21-4.7V39.71A2.54,2.54,0,0,1,69.4,42.15Z" fill="#11619a"/><path d="M69,42,47.2,44.62a1.73,1.73,0,0,1-2-1.74V25.36L71,22.49V39.83A2.29,2.29,0,0,1,69,42Z" fill="#999"/><path d="M71.62,80.94,29.41,86.63V53.74a2.33,2.33,0,0,1,2-2.24l38.21-4.62a1.72,1.72,0,0,1,2,1.72Z" fill="#f2f2f2"/><path d="M67.15,40.9l-6.08.72a.87.87,0,0,1-1-.87V28.61a1.14,1.14,0,0,1,1-1.1l6.08-.69a.87.87,0,0,1,1,.87V39.8A1.15,1.15,0,0,1,67.15,40.9Z" fill="#0d4973"/><polygon points="68.15 25.14 63.67 25.64 63.67 23.76 68.15 23.26 68.15 25.14" fill="#0d4973"/><polygon points="52.54 26.89 48.06 27.39 48.06 25.5 52.54 25 52.54 26.89" fill="#0d4973"/><rect x="32.05" y="20.46" width="10.04" height="57.29" transform="translate(86.13 86.25) rotate(164.18)" fill="#f89820"/><polygon points="47.23 85.17 49.62 75.19 39.95 77.93 47.23 85.17" fill="#fbcb8f"/><polygon points="47.26 85.31 47.95 82.43 45.18 83.24 47.26 85.31" fill="#595959"/><path d="M32.59,24.64q1.84,5.92,3.59,11.86l3.44,11.9,3.32,11.93q1.62,6,3.16,12-1.85-5.91-3.59-11.85l-3.44-11.9L35.76,36.62Q34.13,30.65,32.59,24.64Z" fill="#fbcb8f"/><path d="M30.27,25.32q1.83,5.92,3.59,11.86l3.44,11.9L40.61,61q1.64,6,3.16,12-1.85-5.91-3.59-11.85l-3.44-11.9L33.43,37.3Q31.8,31.33,30.27,25.32Z" fill="#fbcb8f"/><path d="M27.93,26q1.84,5.93,3.59,11.86L35,49.74l3.32,11.94q1.63,6,3.16,12Q39.6,67.74,37.85,61.8L34.41,49.9,31.1,38Q29.47,32,27.93,26Z" fill="#fbcb8f"/><rect x="24.04" y="19.38" width="10.04" height="2.87" transform="translate(62.69 32.93) rotate(164.18)" fill="#999"/><path d="M23,14.15H33a0,0,0,0,1,0,0v3.93a1.81,1.81,0,0,1-1.81,1.81H24.77A1.81,1.81,0,0,1,23,18.09V14.15A0,0,0,0,1,23,14.15Z" transform="translate(59.55 25.78) rotate(164.18)" fill="#ffbfc8"/></svg>