<svg id="Layer_1" data-name="Layer 1" xmlns="http://www.w3.org/2000/svg" viewBox="0 0 100 100"><path d="M51.24,45.05l7.46,4.1a1,1,0,0,1,0,1.68l-7.46,4.1a1.9,1.9,0,0,1-1.85,0l-7.46-4.1a1,1,0,0,1,0-1.68l7.46-4.1A1.9,1.9,0,0,1,51.24,45.05ZM50.32,42,35.74,50h0l14.58,8,14.57-8h0L50.32,42Z" fill="#ccc"/><path d="M10.85,35.55v29h0v3.87a7.25,7.25,0,0,0,3.64,6.29l32.2,18.53a7.31,7.31,0,0,0,7.24,0l32.2-18.53a7.25,7.25,0,0,0,3.64-6.29V64.52h0v-29h0V31.46a7.26,7.26,0,0,0-3.67-6.31L53.9,6.82a7.28,7.28,0,0,0-7.19,0L14.52,25.15a7.26,7.26,0,0,0-3.67,6.31v4.09m0,0h0" fill="none" stroke="#fff" stroke-linecap="round" stroke-linejoin="round" stroke-width="3.32"/><polygon points="10.85 64.52 37.15 50.03 10.85 35.55 10.85 64.52" fill="#71675c"/><path d="M86.1,25.15,53.9,6.82a7.28,7.28,0,0,0-3.59-1V42.79h0L63.46,50,89.77,35.55V31.46A7.26,7.26,0,0,0,86.1,25.15Z" fill="#2d7dd2"/><path d="M46.71,6.82,14.52,25.15a7.26,7.26,0,0,0-3.67,6.31v4.09L37.15,50l13.16-7.24V5.87A7.34,7.34,0,0,0,46.71,6.82Z" fill="#11619a"/><path d="M37.15,50,10.85,64.52v3.87a7.25,7.25,0,0,0,3.64,6.29l32.2,18.53a7.29,7.29,0,0,0,3.62,1V57.27Z" fill="#97897b"/><path d="M50.31,57.27h0v36.9a7.29,7.29,0,0,0,3.62-1l32.2-18.53a7.25,7.25,0,0,0,3.64-6.29V64.52L63.46,50Z" fill="#f89820"/><polygon points="89.77 64.52 89.77 35.55 63.46 50.03 89.77 64.52" fill="#fbc179"/><path d="M40.56,60.62a16.82,16.82,0,0,1-.1-1.89c0-10,1.36-12.18,9.66-16.28,5.88-2.84,6-2.94,7.14-3.89a5.58,5.58,0,0,0,1.89-4.62c0-4.83-1.78-6.3-7.56-6.3-6.2,0-8.4,1.58-8.4,5.88,0,.32,0,1.16.1,2.31h-16l.1-2.83c.11-7.56.95-10.19,3.78-12.92,4-3.68,10.3-5.25,21-5.25,17.22,0,22.79,4.62,22.79,19,0,6.82-1.36,10.61-4.83,13.65-1.37,1.16-4,2.52-8.51,4.62-4.2,1.89-5,3-5,7.67v.84ZM56,85.41H40.88V69.34H56Z" fill="#fff"/></svg>