<svg id="Layer_1" data-name="Layer 1" xmlns="http://www.w3.org/2000/svg" xmlns:xlink="http://www.w3.org/1999/xlink" viewBox="0 0 100 100"><defs><radialGradient id="radial-gradient" cx="50" cy="54.92" r="33.58" gradientUnits="userSpaceOnUse"><stop offset="0" stop-color="#f89820"/><stop offset="0.32" stop-color="#f89820" stop-opacity="0.99"/><stop offset="0.46" stop-color="#f89820" stop-opacity="0.96"/><stop offset="0.56" stop-color="#f89820" stop-opacity="0.91"/><stop offset="0.64" stop-color="#f89820" stop-opacity="0.84"/><stop offset="0.72" stop-color="#f89820" stop-opacity="0.75"/><stop offset="0.79" stop-color="#f89820" stop-opacity="0.63"/><stop offset="0.85" stop-color="#f89820" stop-opacity="0.49"/><stop offset="0.91" stop-color="#f89820" stop-opacity="0.33"/><stop offset="0.96" stop-color="#f89820" stop-opacity="0.16"/><stop offset="1" stop-color="#f89820" stop-opacity="0"/></radialGradient></defs><circle cx="50" cy="54.92" r="33.58" fill="url(#radial-gradient)"/><path d="M68.28,43.6h-6a10,10,0,0,0-9.7,7.47,5.13,5.13,0,0,0-5.14,0,10,10,0,0,0-9.7-7.45h-6A10.28,10.28,0,0,0,21.34,53a10.06,10.06,0,0,0,10,10.72h6.36a10,10,0,0,0,10-8.82,2.21,2.21,0,0,1,1.43-1.82,2.47,2.47,0,0,1,.86-.15,2.72,2.72,0,0,1,1.22.3,2.12,2.12,0,0,1,1.1,1.64,10,10,0,0,0,10,8.85h6.36A10.06,10.06,0,0,0,78.66,53,10.28,10.28,0,0,0,68.28,43.6Z"/><path d="M72.5,32.56H60.7V23.68H72.5V11.44h9.7V23.68H94.06v8.88H82.2V44.74H72.5Z" fill="#0d4973" stroke="#fff" stroke-linecap="round" stroke-linejoin="round" stroke-width="0.79"/></svg>