<svg id="Layer_1" data-name="Layer 1" xmlns="http://www.w3.org/2000/svg" viewBox="0 0 100 100"><path d="M32.28,27.62A6.09,6.09,0,0,1,37,27.57L96,52.88c1.45.63,1.68,1.66.52,2.3L67.44,71.39a6,6,0,0,1-4.73,0l-59-25.31c-1.45-.62-1.69-1.64-.53-2.29ZM89.16,54.1,74.42,47.78,49.55,61.64,64.29,68,89.16,54.1m-78.6-9.19L44.29,59.38,55,53.4,21.29,38.93l-10.73,6m58.6.61-8.35-3.58-9.94,5.54,8.36,3.58,9.93-5.54m-13.6-5.84L47.21,36.1l-9.94,5.54,8.35,3.58,9.94-5.54M42,33.85l-6.53-2.8-9.94,5.53L32,39.39,42,33.85" fill="#0e5180"/></svg>