<svg id="Layer_1" data-name="Layer 1" xmlns="http://www.w3.org/2000/svg" viewBox="0 0 100 100"><polygon points="62.37 82.03 10.65 90.71 10.65 23.78 41.52 19.52 62.37 34.67 62.37 82.03" fill="#fff" stroke="#999" stroke-linecap="round" stroke-linejoin="round" stroke-width="1.08"/><path d="M16,33c1.37-.2,1.37.51,2.74.32s1.36-.91,2.73-1.1,1.37.51,2.73.32,1.37-.9,2.74-1.1,1.37.51,2.73.32,1.37-.9,2.74-1.1,1.37.51,2.73.32,1.37-.9,2.74-1.1,1.36.51,2.73.32,1.37-.9,2.74-1.09,1.37.5,2.74.31,1.37-.9,2.74-1.09,1.37.5,2.74.3" fill="none" stroke="#999" stroke-linecap="round" stroke-linejoin="round" stroke-width="1.08"/><path d="M16,41.26c1.87-.27,1.87,1.89,3.73,1.61s1.86-2.43,3.72-2.7,1.86,1.88,3.72,1.61,1.86-2.42,3.73-2.69,1.86,1.87,3.72,1.59S36.5,38.27,38.37,38s1.86,1.86,3.72,1.59,1.86-2.41,3.73-2.68,1.86,1.86,3.72,1.58,1.87-2.4,3.73-2.67S55.14,37.67,57,37.4" fill="none" stroke="#999" stroke-linecap="round" stroke-linejoin="round" stroke-width="1.08"/><path d="M16,50.89c1.58-.24,1.58.58,3.15.34s1.58-1,3.15-1.29,1.58.58,3.15.34,1.58-1.05,3.15-1.28,1.58.57,3.15.33,1.58-1,3.16-1.28,1.57.57,3.15.33,1.57-1,3.15-1.28,1.57.57,3.15.33,1.58-1,3.15-1.28,1.58.57,3.16.33,1.58-1,3.16-1.28,1.57.57,3.15.33" fill="none" stroke="#999" stroke-linecap="round" stroke-linejoin="round" stroke-width="1.08"/><path d="M16,59.18c1.87-.29,1.87,1.87,3.73,1.58s1.86-2.44,3.72-2.73,1.86,1.86,3.72,1.58,1.86-2.44,3.73-2.73,1.86,1.86,3.72,1.57S36.5,56,38.37,55.73s1.86,1.85,3.72,1.56,1.86-2.42,3.73-2.7,1.86,1.84,3.72,1.55,1.87-2.42,3.73-2.7S55.14,55.27,57,55" fill="none" stroke="#999" stroke-linecap="round" stroke-linejoin="round" stroke-width="1.08"/><polygon points="41.87 19.47 62.37 34.6 41.87 37.59 41.87 19.47" fill="#fff" stroke="#999" stroke-linecap="round" stroke-linejoin="round" stroke-width="1.08"/><path d="M65.13,31.87H53.22v-9H65.13V10.56h9.79V22.91h12v9h-12V44.16H65.13Z" fill="#0d4973" stroke="#fff" stroke-linecap="round" stroke-linejoin="round" stroke-width="0.79"/></svg>